<?xml version="1.0" standalone="no"?>
<!DOCTYPE svg PUBLIC "-//W3C//DTD SVG 1.1//EN" "http://www.w3.org/Graphics/SVG/1.1/DTD/svg11.dtd" >
<svg xmlns="http://www.w3.org/2000/svg">
<metadata></metadata>
<defs>
<font id="sr_fahthairegular" horiz-adv-x="0" >
<font-face units-per-em="2048" ascent="1638" descent="-410" />
<missing-glyph horiz-adv-x="500" />
<glyph unicode="&#xe4f;&#x22;" horiz-adv-x="960" d="M115 332q0 -141 106.5 -240.5t255.5 -99.5q152 0 258.5 99.5t106.5 240.5q0 143 -106.5 242.5t-258.5 99.5q-150 0 -256 -100t-106 -242zM186 330q0 117 84 196.5t207 79.5q126 0 210.5 -79.5t84.5 -196.5q0 -116 -84.5 -195.5t-210.5 -79.5q-123 0 -207 79.5t-84 195.5z M272 332q0 -79 60.5 -136t144.5 -57q87 0 146 56.5t59 136.5q0 82 -59 138t-146 56q-84 0 -144.5 -56.5t-60.5 -137.5zM317 756h107v186h-107v-186zM340 332q0 54 40.5 91.5t96.5 37.5q57 0 97 -37.5t40 -91.5t-40 -91.5t-97 -37.5q-56 0 -96.5 37.5t-40.5 91.5zM537 756 h102v186h-102v-186z" />
<glyph unicode="&#xe24;&#xe32;" horiz-adv-x="1355" d="M100 580q8 -5 25.5 -14t24.5 -13q16 -7 42 -21.5t37 -19.5q-25 -31 -34 -67.5t-9 -102.5v-236q0 -59 35.5 -90.5t89.5 -31.5q60 0 95.5 42t35.5 105q0 68 -39.5 125.5t-101.5 97.5q0 34 2.5 56t12 50t33 44t61.5 20l-146 82q86 86 180 86q89 0 140 -57.5t51 -140.5v-816 l115 54v766v20q0 8 -2 12q29 78 72.5 120t94.5 42q67 0 110.5 -50t43.5 -116v-848l113 54v794q0 107 -71.5 187t-184.5 80q-71 0 -132 -32.5t-98 -88.5q-89 121 -252 121q-97 0 -180 -52.5t-164 -160.5zM301 106v156q29 -13 50.5 -52.5t21.5 -72.5q0 -76 -45 -76 q-11 0 -19 11.5t-8 33.5z" />
<glyph unicode="&#xe26;&#xe32;" horiz-adv-x="1388" d="M111 578l161 -91v-131q-62 -40 -101.5 -98.5t-39.5 -126.5q0 -63 35.5 -105t95.5 -42q54 0 90.5 31.5t36.5 90.5v400l12 29l-131 73q100 86 209 86q77 0 131 -56.5t54 -131.5v-815h2l112 51v764v16q26 81 71 125.5t99 44.5q67 0 110.5 -50t43.5 -116v-848l112 54v794 q0 107 -71.5 187t-184.5 80q-71 0 -131.5 -32.5t-97.5 -88.5q-43 59 -109.5 90t-140.5 31q-204 0 -368 -215zM201 137q0 33 21 72.5t50 52.5v-156q0 -45 -26 -45q-45 0 -45 76z" />
<glyph horiz-adv-x="2048" />
<glyph horiz-adv-x="2048" />
<glyph unicode="&#xd;" horiz-adv-x="2048" />
<glyph unicode="!" horiz-adv-x="663" d="M256 -41h152v160h-152v-160zM256 979l16 -698l119 69l17 629h-152z" />
<glyph unicode="&#x22;" horiz-adv-x="698" d="M182 756l117 41v264h-117v-305zM399 754l115 43v264h-115v-307z" />
<glyph unicode="#" horiz-adv-x="829" d="M59 301h162l-88 -301h94l86 301h117l-86 -301h92l86 301h158l25 94h-160l30 121h164l27 94h-162l80 301h-84l-88 -301h-109l89 301h-91l-90 -301h-170l-22 -94h164l-37 -121h-160zM340 395l37 121h112l-38 -121h-111z" />
<glyph unicode="$" horiz-adv-x="708" d="M115 240q35 -173 182 -207v-105h104v103q92 20 141.5 80.5t49.5 148.5q0 93 -44 148.5t-147 109.5v260q35 -11 51 -50t29 -112l92 74q-12 81 -55.5 133t-116.5 62v147l-104 -67v-82q-68 -25 -113 -87.5t-45 -131.5q0 -41 13.5 -76.5t28.5 -56.5t43 -42.5t38.5 -27.5 t34.5 -19v-303q-37 17 -55 52.5t-31 121.5zM246 657q0 66 51 105v-197q-51 34 -51 92zM401 143v252q80 -50 80 -127q0 -84 -80 -125z" />
<glyph unicode="%" horiz-adv-x="1038" d="M100 715q0 -92 59 -154.5t144 -62.5q83 0 143 63t60 154q0 90 -60.5 154.5t-142.5 64.5q-83 0 -143 -64t-60 -155zM203 715q0 48 29.5 85.5t70.5 37.5q42 0 71 -37.5t29 -85.5q0 -50 -29 -84.5t-71 -34.5q-41 0 -70.5 35t-29.5 84zM244 0h116l433 911h-117zM537 197 q0 -91 58.5 -154t141.5 -63q85 0 145 64t60 153q0 91 -60 156t-145 65q-83 0 -141.5 -65t-58.5 -156zM639 197q0 49 29.5 85.5t68.5 36.5q44 0 73.5 -36t29.5 -86q0 -48 -29.5 -82.5t-73.5 -34.5q-39 0 -68.5 35t-29.5 82z" />
<glyph unicode="&#x26;" horiz-adv-x="987" d="M154 264q0 -108 77 -194t191 -86q150 0 252 178l162 -205v180l-105 133l111 232h-127l-64 -146q-31 39 -53 64q-19 20 -52 60t-40 48q162 79 162 203q0 94 -57.5 152.5t-155.5 58.5q-81 0 -144 -59.5t-63 -143.5q0 -83 80 -182q-79 -52 -126.5 -130t-47.5 -163zM264 256 q0 133 139 219l187 -227q-83 -164 -176 -164q-63 0 -106.5 55.5t-43.5 116.5zM360 733q0 44 28.5 75.5t70.5 31.5q41 0 71.5 -32.5t30.5 -74.5q0 -74 -125 -129q-76 73 -76 129z" />
<glyph unicode="'" horiz-adv-x="473" d="M178 754l119 43v264h-119v-307z" />
<glyph unicode="(" horiz-adv-x="636" d="M119 471q0 -285 170 -479q75 -84 168 -133v121q-108 80 -167 211t-59 262q0 139 57.5 266.5t168.5 212.5v123q-157 -86 -247.5 -250.5t-90.5 -333.5z" />
<glyph unicode=")" horiz-adv-x="636" d="M115 -20v-121q95 50 172 133q168 197 168 479q0 109 -39.5 219.5t-118 208.5t-182.5 156v-123q111 -85 168 -212t57 -267q0 -132 -58.5 -262.5t-166.5 -210.5z" />
<glyph unicode="*" horiz-adv-x="665" d="M137 1128h105l-54 -94l91 -53l55 92l57 -96l86 61l-53 90h104v99h-104l53 94l-88 53l-55 -94l-55 94l-91 -53l58 -94h-109v-99z" />
<glyph unicode="+" horiz-adv-x="987" d="M186 406h250v-242h113v242h254v104h-254v238h-113v-238h-250v-104z" />
<glyph unicode="," horiz-adv-x="473" d="M115 -131h129l118 270h-133z" />
<glyph unicode="-" horiz-adv-x="792" d="M174 303h442v103h-442v-103z" />
<glyph unicode="." horiz-adv-x="378" d="M104 31q0 -32 24.5 -55t59.5 -23t58.5 22.5t23.5 55.5t-23.5 55.5t-58.5 22.5t-59.5 -23t-24.5 -55z" />
<glyph unicode="/" horiz-adv-x="657" d="M57 -33h113l430 975h-115z" />
<glyph unicode="0" horiz-adv-x="946" d="M186 319q0 -337 285 -337q291 0 291 337v299q0 149 -74.5 229.5t-216.5 80.5q-141 0 -213 -80t-72 -230v-299zM297 324v274q0 233 174 233t174 -233v-274q0 -244 -174 -244t-174 244z" />
<glyph unicode="1" horiz-adv-x="946" d="M287 788l176 25v-813h123v936l-242 -25z" />
<glyph unicode="2" horiz-adv-x="946" d="M188 0h512l80 104h-397q84 63 161 144.5t135 186t58 192.5q0 82 -27.5 148.5t-90 109.5t-150.5 43q-121 0 -193.5 -74.5t-80.5 -198.5l104 -73q5 98 49.5 171.5t114.5 73.5q81 0 123.5 -59t42.5 -143q0 -60 -44 -137t-112.5 -148.5t-142.5 -132.5t-142 -103v-104z" />
<glyph unicode="3" horiz-adv-x="946" d="M201 219q20 -115 91 -176t177 -61q120 0 198 76t78 186q0 95 -26 146.5t-94 86.5q37 41 59.5 95.5t22.5 101.5q0 115 -59 184.5t-173 69.5q-182 0 -244 -178l97 -60q18 64 53.5 101.5t87.5 37.5q59 0 93 -37t34 -110q0 -60 -43.5 -107t-112.5 -47h-39v-116 q120 -5 176 -43.5t56 -124.5q0 -72 -45.5 -116t-120.5 -44q-67 0 -112.5 58t-53.5 141z" />
<glyph unicode="4" horiz-adv-x="946" d="M156 162h415v-162h111v162h45l84 102h-129v647h-123l-403 -649v-100zM291 264l280 459v-459h-280z" />
<glyph unicode="5" horiz-adv-x="946" d="M197 233q24 -133 93.5 -193t194.5 -60q89 0 156 50.5t99 124.5t32 156q0 57 -17 111t-50 99t-87 72.5t-122 27.5q-69 0 -136 -31l43 219h273l78 102h-449l-78 -446l90 -41q82 98 160 98q87 0 136 -57t49 -141q0 -55 -18.5 -108t-61.5 -92.5t-101 -39.5q-75 0 -124.5 66 t-57.5 161z" />
<glyph unicode="6" horiz-adv-x="946" d="M180 293q0 -126 81.5 -219.5t207.5 -93.5q132 0 213.5 94t81.5 221q0 75 -30 145t-94 119t-148 49q-46 0 -64 -6l195 309h-140q-182 -286 -226 -368q-76 -146 -77 -250zM291 299q0 82 49.5 145.5t130.5 63.5t130.5 -67.5t49.5 -147.5q0 -81 -49 -145t-131 -64 q-79 0 -129.5 64.5t-50.5 150.5z" />
<glyph unicode="7" horiz-adv-x="946" d="M197 911l75 -102h344l-340 -809h127l338 811v100h-544z" />
<glyph unicode="8" horiz-adv-x="946" d="M201 264q0 -113 76.5 -195.5t195.5 -82.5q116 0 194 80t78 198q0 77 -31.5 132t-97.5 104q86 67 86 190q0 107 -60.5 172.5t-168.5 65.5t-168.5 -65.5t-60.5 -172.5q0 -112 84 -190q-127 -91 -127 -236zM311 260q0 91 47.5 141t114.5 50t114.5 -50t47.5 -141 q0 -68 -46 -120t-116 -52q-67 0 -114.5 52t-47.5 120zM358 694q0 58 30 96.5t85 38.5t87 -38.5t32 -96.5q0 -57 -32 -97t-87 -40q-54 0 -84.5 40t-30.5 97z" />
<glyph unicode="9" horiz-adv-x="946" d="M182 616q0 -75 31.5 -145.5t96 -119t147.5 -48.5q34 0 61 6l-192 -309h137q181 284 223 362q77 142 80 245v11q0 126 -81.5 220t-207.5 94q-130 0 -212.5 -95t-82.5 -221zM295 618q0 80 50.5 144.5t129.5 64.5t130.5 -65t51.5 -150q0 -82 -50.5 -145.5t-131.5 -63.5 q-78 0 -129 68t-51 147z" />
<glyph unicode=":" horiz-adv-x="548" d="M219 0h113v205h-113v-205zM219 467h113v203h-113v-203z" />
<glyph unicode=";" horiz-adv-x="665" d="M164 -127h117l118 268h-118zM274 467h115v203h-115v-203z" />
<glyph unicode="&#x3c;" horiz-adv-x="813" d="M78 453l594 -299v118l-453 230l453 229v119l-594 -299v-98z" />
<glyph unicode="=" horiz-adv-x="987" d="M186 264h617v103h-617v-103zM186 483h617v103h-617v-103z" />
<glyph unicode="&#x3e;" horiz-adv-x="813" d="M141 154l594 299v98l-594 299v-119l455 -229l-455 -230v-118z" />
<glyph unicode="?" horiz-adv-x="798" d="M113 662l112 -82q0 62 16 122.5t53 106t87 45.5q71 0 110 -40t39 -120q0 -9 -1 -18t-4.5 -18.5t-6 -17t-9 -18.5t-9.5 -16.5t-12 -18.5t-12 -17.5t-13.5 -19t-13.5 -18.5q-37 -50 -56.5 -80t-39 -86t-19.5 -114h112q1 37 16 75t29 58.5t46 63.5q36 50 56 81t39 80.5 t19 94.5q0 128 -68 194t-192 66q-117 0 -197.5 -91.5t-80.5 -211.5zM313 -80h150v215h-150v-215z" />
<glyph unicode="@" horiz-adv-x="1134" d="M92 461q0 -213 147 -353.5t367 -140.5q187 0 361 148h-138q-72 -54 -237 -62q-165 0 -283.5 116t-118.5 282q0 103 53 195.5t146.5 150t202.5 57.5q148 0 255 -90t107 -227q0 -56 -19.5 -117t-64 -109.5t-102.5 -48.5q-26 0 -42.5 12.5t-16.5 36.5l110 379l-84 -47 q-57 72 -131 72q-80 0 -144 -54.5t-95 -129t-31 -148.5q0 -77 43.5 -129t118.5 -53q84 8 137 55q33 -72 125 -72q67 0 122.5 33t90 85.5t53 113.5t18.5 121q0 113 -60.5 207t-162 147t-221.5 53q-109 0 -204.5 -40t-161 -106.5t-103 -154t-37.5 -182.5zM422 387 q0 50 21 103.5t63.5 93t93.5 39.5q32 0 55 -22.5t23 -53.5q0 -67 -57 -165.5t-117 -98.5q-82 0 -82 104z" />
<glyph unicode="A" horiz-adv-x="905" d="M33 0h123l120 297h355l121 -297h120l-358 911h-117zM313 399l144 349l141 -349h-285z" />
<glyph unicode="B" horiz-adv-x="876" d="M186 0h222q139 0 232 76.5t93 206.5q-12 170 -119 225q61 49 72 160q1 9 1 18q1 74 -37 124q-42 56 -107 78.5t-150 22.5h-207v-911zM299 104v347h98q99 0 160 -39.5t61 -130.5q0 -89 -57.5 -133t-154.5 -44h-107zM299 555v254h100q176 0 176 -133q0 -121 -182 -121h-94z " />
<glyph unicode="C" horiz-adv-x="1007" d="M121 459q0 -133 54.5 -242t160 -174.5t244.5 -65.5q92 0 179 37t118 78v152q-68 -77 -147.5 -119.5t-149.5 -42.5q-157 0 -250.5 98.5t-93.5 270.5q0 70 23.5 137.5t66 121t107 86.5t140.5 33q154 0 304 -184v166q-125 119 -304 119q-100 0 -186 -40t-143.5 -105.5 t-90 -150.5t-32.5 -175z" />
<glyph unicode="D" horiz-adv-x="1038" d="M186 0h242q213 0 346 136t133 341t-133 319.5t-352 114.5h-236v-911zM299 104v705h90q406 0 406 -332q0 -177 -109.5 -275t-296.5 -98h-90z" />
<glyph unicode="E" horiz-adv-x="839" d="M186 0h480v104h-367v322h258l84 102h-342v281h367v102h-480v-911z" />
<glyph unicode="F" horiz-adv-x="714" d="M186 0h111v401h203l75 105h-278v303h332v102h-443v-911z" />
<glyph unicode="G" horiz-adv-x="1009" d="M121 461q0 -135 54.5 -243.5t160 -173t244.5 -64.5q204 0 297 124v388h-342l-76 -103h307v-248q-95 -59 -186 -59q-157 0 -250.5 99.5t-93.5 271.5q0 95 40.5 180.5t119 140.5t177.5 55q154 0 304 -182l2 158q-48 48 -128.5 87.5t-177.5 39.5q-100 0 -186 -40 t-143.5 -105.5t-90 -150.5t-32.5 -175z" />
<glyph unicode="H" horiz-adv-x="987" d="M186 0h111v424h395v-453l111 64v876h-111v-383h-395v383h-111v-911z" />
<glyph unicode="I" horiz-adv-x="489" d="M176 911l10 -911h117l8 911h-135z" />
<glyph unicode="J" horiz-adv-x="706" d="M55 217q12 -105 75 -171t159 -66q114 0 173.5 72.5t59.5 217.5v641h-112v-624q0 -203 -127 -203q-51 0 -84 54.5t-39 146.5z" />
<glyph unicode="K" horiz-adv-x="866" d="M186 0h111v313l92 107l258 -420h144l-322 514l322 397h-148l-346 -415v415h-111v-911z" />
<glyph unicode="L" horiz-adv-x="780" d="M186 0h418l68 104h-373v807h-113v-911z" />
<glyph unicode="M" horiz-adv-x="1249" d="M186 0h111v713l283 -713h90l282 715v-744l113 64v876h-154l-286 -723l-287 723h-152v-911z" />
<glyph unicode="N" horiz-adv-x="1048" d="M186 -29l111 64v700l461 -735h106v911h-112v-694l-435 694h-131v-940z" />
<glyph unicode="O" horiz-adv-x="1136" d="M121 453q0 -89 31 -173.5t86.5 -151.5t141 -107.5t187.5 -40.5q104 0 191 42t142.5 110.5t85.5 153.5t30 175q0 86 -31.5 169.5t-87 151t-142 109t-188.5 41.5q-83 0 -155.5 -27.5t-125 -74.5t-90.5 -108.5t-56.5 -130t-18.5 -138.5zM236 453q0 88 38.5 173.5t115.5 145 t173 59.5q99 0 178 -55.5t119.5 -139t40.5 -175.5q0 -68 -20.5 -133.5t-59.5 -120.5t-104.5 -89t-147.5 -34q-99 0 -177 57.5t-117 141t-39 170.5z" />
<glyph unicode="P" horiz-adv-x="866" d="M186 0h113v313h68q198 0 294.5 80.5t96.5 218.5q0 142 -87.5 220.5t-248.5 78.5h-236v-911zM299 418v391h119q114 0 168.5 -51.5t54.5 -145.5q0 -97 -69 -145.5t-169 -48.5h-104z" />
<glyph unicode="Q" horiz-adv-x="1179" d="M121 451q0 -120 55.5 -227t160.5 -175.5t234 -68.5q116 0 242 73q58 -52 160 -61l88 127q-2 -1 -9 -4t-12 -4q-26 -11 -69 -11q-14 0 -49 15q-3 2 -8.5 6t-8.5 6q55 69 90 156.5t35 165.5q0 125 -54.5 234t-161 179t-241.5 70q-136 0 -240.5 -68t-158 -176.5 t-53.5 -236.5zM233 449q0 95 41 181.5t120.5 143.5t178.5 57q98 0 178 -57t122 -144t42 -181q0 -128 -98 -244q-52 58 -112 96q-148 94 -302 94q-69 0 -159 -35q-11 50 -11 89zM289 264q62 21 115 24h14l92 -15q53 -17 104.5 -48.5t118.5 -85.5q-93 -55 -155 -55 q-88 0 -164 47t-125 133z" />
<glyph unicode="R" horiz-adv-x="903" d="M186 0h111v809h125q105 0 167 -56t62 -155q0 -100 -64.5 -158.5t-164.5 -58.5h-98l309 -381h139l-237 297q110 29 171.5 107t61.5 184q0 161 -94 242t-268 81h-220v-911z" />
<glyph unicode="S" horiz-adv-x="780" d="M131 215q17 -116 83 -175.5t173 -59.5q110 0 186 72t76 175q0 57 -19 104t-54 82t-70.5 59t-83.5 48q-35 18 -43.5 23t-37 21.5t-37.5 26t-24.5 27t-20.5 35.5t-5 39q0 55 37 95t88 40q130 0 164 -178l92 70q-19 100 -80.5 154.5t-163.5 54.5q-112 0 -180 -64.5 t-68 -169.5q0 -24 3.5 -46t12.5 -41t16.5 -33.5t24.5 -30t26.5 -25t32.5 -24t32 -20t36 -21t35 -19.5q74 -33 125.5 -87t51.5 -118q0 -66 -42 -106.5t-114 -40.5q-56 0 -100 58t-56 149z" />
<glyph unicode="T" horiz-adv-x="798" d="M131 809h186v-809h113v809h152l86 102h-537v-102z" />
<glyph unicode="U" horiz-adv-x="931" d="M174 338q0 -69 17 -130.5t50.5 -113t92 -82t133.5 -30.5q79 0 137.5 32.5t90.5 88t47.5 118.5t15.5 135v582l-113 -59v-541q0 -102 -45 -178t-133 -76q-180 0 -180 272v555h-113v-573z" />
<glyph unicode="V" horiz-adv-x="860" d="M33 911l346 -911h100l348 911h-122l-275 -735l-274 735h-123z" />
<glyph unicode="W" horiz-adv-x="1296" d="M109 911l239 -911h133l166 690l166 -690h135l238 911h-117l-188 -725l-179 725h-104l-186 -725l-185 725h-118z" />
<glyph unicode="X" horiz-adv-x="864" d="M76 0h135l221 436l217 -436h137l-288 535l272 376h-131l-207 -286l-209 286h-133l275 -376z" />
<glyph unicode="Y" horiz-adv-x="761" d="M33 911l291 -604v-307h112v305l293 606h-127l-223 -469l-221 469h-125z" />
<glyph unicode="Z" horiz-adv-x="772" d="M98 0h504l72 104h-449l400 709v98h-514v-102h393l-406 -711v-98z" />
<glyph unicode="[" horiz-adv-x="548" d="M178 131q0 -42 5 -73t20 -56.5t31.5 -42t50.5 -34.5t65.5 -31t87.5 -33v106q-99 43 -123 68t-24 96v649q0 73 25 98t122 64v107q-55 -20 -87.5 -33t-66 -31t-50.5 -35.5t-31.5 -42.5t-19.5 -55.5t-5 -71.5v-649z" />
<glyph unicode="\" horiz-adv-x="657" d="M111 911l352 -911h106l-350 911h-108z" />
<glyph unicode="]" horiz-adv-x="548" d="M180 -33v-106q67 24 104.5 39.5t72 37.5t50 47t24.5 60.5t9 85.5v649q0 50 -9 85t-24.5 60t-50 46.5t-72 38t-104.5 39.5v-107q56 -21 78.5 -31.5t42.5 -29t24.5 -40t4.5 -61.5v-649q0 -70 -25.5 -96.5t-124.5 -67.5z" />
<glyph unicode="^" horiz-adv-x="886" d="M74 387h127l243 424l242 -424h127l-317 557h-103z" />
<glyph unicode="_" horiz-adv-x="784" d="M0 -86v-104h784v104h-784z" />
<glyph unicode="`" horiz-adv-x="825" d="M254 1188l262 -193l57 95l-270 194z" />
<glyph unicode="a" horiz-adv-x="970" d="M121 340q0 -158 93 -259t241 -101q52 0 111 25t108 69v-80h110v651l-110 60v-99q-43 40 -100.5 65t-112.5 25q-146 0 -243 -106.5t-97 -249.5zM231 338q0 103 65 179.5t163 76.5q69 0 120.5 -40.5t75 -99t23.5 -122.5q0 -98 -61.5 -174t-161.5 -76q-21 0 -47 6t-58 23.5 t-58 44t-43.5 74.5t-17.5 108z" />
<glyph unicode="b" horiz-adv-x="970" d="M186 0h111v78q83 -96 219 -96q99 0 177 54t117.5 135.5t39.5 170.5t-41 170.5t-121 134.5t-180 53q-116 0 -211 -102v360l-111 -61v-897zM293 334q0 64 24.5 122.5t76 99t118.5 40.5q97 0 161 -79t64 -177q0 -94 -63 -175t-158 -81q-101 0 -162 75.5t-61 174.5z" />
<glyph unicode="c" horiz-adv-x="827" d="M121 338q0 -145 97 -251.5t249 -106.5q150 0 229 79v144q-115 -121 -219 -121q-103 0 -174.5 77.5t-71.5 178.5q0 106 68 181t174 75q103 0 223 -107v134q-33 31 -97 53t-136 22q-141 0 -241.5 -107.5t-100.5 -250.5z" />
<glyph unicode="d" horiz-adv-x="970" d="M121 342q0 -89 39.5 -170.5t117.5 -135.5t177 -54q135 0 219 90v-72h110v897l-110 61v-352q-39 42 -95.5 68t-115.5 26q-102 0 -181.5 -51t-120 -132t-40.5 -175zM233 340q0 98 64.5 177t161.5 79q69 0 120.5 -40.5t75 -99t23.5 -122.5q0 -103 -60.5 -176.5t-162.5 -73.5 q-95 0 -158.5 79t-63.5 177z" />
<glyph unicode="e" horiz-adv-x="905" d="M121 338q0 -94 41.5 -175t121.5 -132t181 -51q152 0 231 79v140q-57 -62 -112.5 -89.5t-124.5 -27.5h2q-95 8 -157.5 65t-72.5 152h549l2 92v9q0 112 -94 202q-98 94 -227 94q-96 0 -175.5 -53t-122 -134.5t-42.5 -170.5zM238 401q24 87 84 140t141 53q92 0 151.5 -54 t65.5 -139h-442z" />
<glyph unicode="f" horiz-adv-x="589" d="M109 604h94v-604h112v604h121l76 103h-197q3 139 84 139q33 0 50 -10q15 -10 18 -11v105q-10 4 -23 6q-28 4 -61 4q-85 0 -132.5 -62.5t-47.5 -168.5v-2h-94v-103z" />
<glyph unicode="g" horiz-adv-x="954" d="M121 334q0 -146 90 -251.5t238 -105.5q57 0 117 26t102 75q0 -103 -54 -177.5t-151 -74.5q-135 0 -227 86v-121q75 -65 221 -65q107 0 182 53.5t108 136.5t33 186v594l-112 -45v-61q-43 49 -104.5 76.5t-119.5 27.5q-152 0 -237.5 -105t-85.5 -255zM236 342 q0 101 53.5 175.5t152.5 74.5q104 0 166 -75.5t62 -180.5q0 -104 -59 -180t-160 -76q-68 3 -118.5 42t-73.5 96t-23 124z" />
<glyph unicode="h" horiz-adv-x="925" d="M186 0h113v360q0 236 164 236q82 0 128 -64.5t46 -154.5v-404l113 62v340q0 135 -76 229t-209 94q-38 0 -84 -18.5t-82 -50.5v332l-113 -62v-899z" />
<glyph unicode="i" horiz-adv-x="462" d="M164 840h135v157h-135v-157zM172 8l119 -61v723h-119v-662z" />
<glyph unicode="j" horiz-adv-x="503" d="M55 -152v-114q3 -1 10.5 -3t10.5 -3q32 -4 59 -4q54 0 90.5 19t56 56t28 73t12.5 87v725l-117 -51v-668q0 -145 -76 -145q-33 0 -55 14q-4 4 -19 14zM197 840h133v157h-133v-157z" />
<glyph unicode="k" horiz-adv-x="782" d="M186 0h109v236l80 86l190 -322h142l-252 410l231 260h-139l-252 -277v565l-109 -59v-899z" />
<glyph unicode="l" horiz-adv-x="528" d="M174 893q30 -23 41.5 -56t11.5 -94v-696q0 -48 39 -65l99 26q-27 6 -27 55v689q0 169 -109 231z" />
<glyph unicode="m" horiz-adv-x="1288" d="M186 0h113v385q0 203 147 203q72 0 111 -61t39 -142v-385h113v375q0 213 139 213q75 0 114 -57.5t39 -139.5v-418l113 62v360q0 116 -71 205.5t-191 89.5q-77 0 -124 -28t-79 -82q-35 59 -81.5 82.5t-110.5 23.5q-97 0 -158 -55v39h-113v-670z" />
<glyph unicode="n" horiz-adv-x="925" d="M186 0h113v352q0 121 39.5 177.5t124.5 56.5q81 0 127.5 -66t46.5 -153v-394l113 62v330q0 135 -76 229t-209 94q-40 0 -85 -16.5t-81 -46.5v45h-113v-670z" />
<glyph unicode="o" horiz-adv-x="903" d="M121 342q0 -91 40 -173t118 -135.5t176 -53.5q97 0 173.5 53.5t115 135t38.5 173.5q0 143 -90.5 248.5t-236.5 105.5q-147 0 -240.5 -106t-93.5 -248zM236 340q0 100 58.5 177t160.5 77q97 0 156 -76.5t59 -175.5q0 -63 -24.5 -121t-75 -98.5t-115.5 -40.5 q-69 0 -120.5 41.5t-75 98.5t-23.5 118z" />
<glyph unicode="p" horiz-adv-x="970" d="M186 -233l111 -60v344q77 -84 211 -84q147 0 244.5 107.5t97.5 251.5q0 90 -41 172t-119 135t-174 53q-59 0 -117 -25t-102 -67v74h-111v-901zM293 334q0 103 60.5 176.5t162.5 73.5q93 0 157 -79.5t64 -176.5q0 -99 -64 -178.5t-161 -79.5q-99 0 -159 82t-60 182z" />
<glyph unicode="q" horiz-adv-x="970" d="M121 326q0 -145 97.5 -252t244.5 -107q47 0 106 23t105 67v-350l110 60v901h-110v-74q-92 92 -219 92q-145 0 -239.5 -106.5t-94.5 -253.5zM233 328q0 101 64 178.5t158 77.5q102 0 162.5 -73.5t60.5 -176.5q0 -63 -23.5 -122t-75 -100.5t-120.5 -41.5q-98 0 -162 76.5 t-64 181.5z" />
<glyph unicode="r" horiz-adv-x="571" d="M186 0h111v375q0 89 51 145t148 66v108q-123 -8 -199 -84v88l-111 -51v-647z" />
<glyph unicode="s" horiz-adv-x="671" d="M131 166q7 -91 59.5 -138.5t139.5 -47.5q98 0 154.5 53t56.5 145q0 29 -10 54.5t-21.5 42.5t-36 37t-39 29t-45.5 28q-61 31 -93 63t-32 78q0 35 20 60.5t56 25.5q62 0 92 -113l98 62q-20 67 -70 109t-124 42q-81 0 -133.5 -55.5t-52.5 -134.5q0 -34 11.5 -64t26.5 -51 t42 -43.5t46 -34.5t50 -30q33 -19 52 -31.5t34.5 -31t15.5 -36.5q0 -44 -26 -74t-66 -30q-44 0 -70.5 32.5t-36.5 108.5z" />
<glyph unicode="t" horiz-adv-x="628" d="M109 565h127v-565h110v565h111l84 105h-195v268l-110 -55v-213h-127v-105z" />
<glyph unicode="u" horiz-adv-x="925" d="M174 313q0 -65 16.5 -123.5t49.5 -107.5t89.5 -78t129.5 -29q92 0 168 64v-72l112 62v641h-112v-357q0 -237 -164 -237q-87 0 -130.5 65t-43.5 156v399l-115 -57v-326z" />
<glyph unicode="v" horiz-adv-x="786" d="M76 670l262 -670h108l265 670h-117l-201 -500l-196 500h-121z" />
<glyph unicode="w" horiz-adv-x="1146" d="M109 670l235 -670h119l110 373l111 -373h119l235 670h-112l-178 -502l-132 416h-86l-127 -418l-178 504h-116z" />
<glyph unicode="x" horiz-adv-x="724" d="M76 670l219 -297l-217 -373h131l153 276l150 -276h135l-219 375l219 295h-131l-154 -211l-155 211h-131z" />
<glyph unicode="y" horiz-adv-x="784" d="M88 668l240 -652l-109 -295h111l368 947h-116l-199 -508l-180 508h-115z" />
<glyph unicode="z" horiz-adv-x="714" d="M98 0h445l73 104h-395l336 455v109h-448v-105h329l-340 -459v-104z" />
<glyph unicode="{" horiz-adv-x="548" d="M119 461q61 -53 61 -129v-201q1 -37 7 -65.5t13 -50t25.5 -40.5t33.5 -31.5t48.5 -28t58 -25.5t74.5 -29v106q-39 17 -55 24t-37 19.5t-26.5 20t-13.5 24t-9.5 32.5t-3.5 44v170q0 13 -2.5 25.5t-5 22.5t-8.5 21t-10.5 18.5t-13 17t-12.5 14.5t-14 13.5t-12.5 10.5 l-12.5 10l-9 7q31 16 65.5 62t34.5 95v160q7 72 27.5 95t117.5 69v107q-138 -54 -175 -79q-56 -38 -73 -108q-7 -33 -10 -82v-192q0 -56 -63 -127z" />
<glyph unicode="|" horiz-adv-x="473" d="M178 -92h115v1093h-115v-1093z" />
<glyph unicode="}" horiz-adv-x="546" d="M147 -33v-106q56 20 86.5 32.5t64.5 30.5t50.5 34.5t31.5 42t20.5 56.5t7.5 74v201q0 77 63 129q-65 69 -65 127v192q-1 26 -3 47t-8 40t-10 32.5t-17 28t-20 23t-28 21t-31.5 18.5t-40.5 18.5t-45.5 19t-55.5 21.5v-107q96 -43 118.5 -67.5t29.5 -96.5v-160 q0 -51 33.5 -97t66.5 -60q-100 -66 -100 -160v-170q-2 -28 -4 -44t-9 -32t-14.5 -24.5t-27 -20t-38 -20t-55.5 -23.5z" />
<glyph unicode="~" horiz-adv-x="987" d="M180 422l78 -82q36 59 61.5 84t49.5 25q27 0 100 -39q114 -52 149 -52q100 0 189 142l-80 71q-37 -54 -60.5 -75t-48.5 -21q-8 0 -83 33q-120 55 -166 55q-95 0 -189 -141z" />
<glyph unicode="&#xad;" horiz-adv-x="792" d="M174 303h442v103h-442v-103z" />
<glyph unicode="&#xe00;" />
<glyph unicode="&#xe01;" horiz-adv-x="911" d="M90 580l123 -70q-39 -49 -39 -117v-393h117v395q0 105 115 123l-152 88q93 84 180 84q90 0 139.5 -50t49.5 -136v-533l114 54v479q0 126 -86.5 207.5t-214.5 81.5q-98 0 -181.5 -52.5t-164.5 -160.5z" />
<glyph unicode="&#xe02;" horiz-adv-x="817" d="M104 604q0 -60 42.5 -94.5t97.5 -17.5q34 9 49.5 40.5t11 64t-23.5 48.5h-5q21 -86 -30 -96q-19 -5 -34 4.5t-19 32.5q-5 35 17.5 70t72.5 42q61 7 90.5 -23t27.5 -77q-3 -42 -59 -115q-47 -63 -73.5 -116.5t-26.5 -112.5v-74q0 -196 198 -196q111 0 157 42.5t46 147.5 v619l-113 -58v-555q0 -57 -20 -76.5t-80 -19.5q-41 0 -57.5 29t-16.5 92v49q0 63 76 170q76 109 76 174q0 89 -53 142t-144 53q-85 0 -146 -55t-61 -134z" />
<glyph unicode="&#xe03;" horiz-adv-x="815" d="M70 541q0 -60 32.5 -95t83.5 -30q34 4 53.5 32t24.5 68h-2q-8 -19 -28.5 -31t-38.5 -8q-45 9 -45 70q0 36 21.5 74.5t41.5 58.5q21 -21 31 -35q40 -51 55 -98h2q10 28 47 94q20 28 29 37q18 -9 31 -25q27 -31 20 -67q-7 -31 -29.5 -65.5t-48.5 -65.5t-51.5 -64t-42 -71.5 t-16.5 -77.5v-62q0 -196 200 -196q111 0 156 42.5t45 147.5v619l-113 -58v-98q-14 50 -54 91.5t-97 64.5l-12 -16t-15 -19q-2 -3 -21.5 -31.5t-27.5 -46.5q-7 14 -16 26.5t-23.5 30t-17.5 21.5q-20 24 -31 35q-64 -50 -103.5 -116.5t-39.5 -135.5zM356 205v37q0 39 23.5 81 t52.5 74t58 74.5t38 79.5v-371q0 -56 -21 -76t-79 -20q-40 0 -56 29t-16 92z" />
<glyph unicode="&#xe04;" horiz-adv-x="952" d="M180 0h178q8 47 19.5 101t13.5 63q1 6 3.5 16.5t4 17.5t2.5 11q107 19 160 88t43 133q-6 41 -40.5 60t-69.5 14q-76 -12 -121 -112t-90 -349h-4h-3l21 236v225q0 99 42.5 142.5t141.5 43.5q94 0 138.5 -37t44.5 -118v-564l114 54v505q0 132 -76 197.5t-221 65.5 q-143 0 -222 -71t-79 -204v-518zM414 276q32 103 50 130q20 28 42 32q13 0 24 -9.5t11 -22.5q0 -33 -34 -76t-93 -54z" />
<glyph unicode="&#xe05;" horiz-adv-x="952" d="M180 0h178q8 47 19.5 101t13.5 63q1 6 3.5 16.5t4 17.5t2.5 11q107 19 160 88t43 133q-6 41 -40.5 60t-69.5 14q-76 -12 -121 -112t-90 -349h-4h-3l21 236v225q0 74 15 112.5t57 61.5l114 -111l107 113q40 -23 57 -65.5t17 -116.5v-527l114 52v491q0 206 -207 279 l-90 -95l-88 95q-213 -75 -213 -279v-514zM414 276q32 103 50 130q20 28 42 32q13 0 24 -9.5t11 -22.5q0 -33 -34 -76t-93 -54z" />
<glyph unicode="&#xe06;" horiz-adv-x="1013" d="M106 541q0 -60 33 -95t84 -30q34 4 53.5 32t24.5 68h-2q-8 -19 -28.5 -31t-39.5 -8q-43 9 -43 70q0 36 21 74.5t41 58.5q21 -21 31 -35q40 -51 55 -98h2q14 40 49 94q13 23 27 37q12 -4 32 -16q11 -9 17 -15t11 -17t5 -26q0 -20 -19 -50.5t-42.5 -58.5t-42.5 -69t-19 -80 q-151 -59 -151 -192q0 -74 37.5 -122t103.5 -48q78 0 101.5 45t23.5 159v66q90 -20 140.5 -80t82.5 -174h146v793l-115 -74v-537q-100 154 -254 168q0 36 16 67.5t35 51.5t35 55t16 78q0 71 -46 119.5t-113 71.5q-10 -12 -25 -35q-3 -5 -15.5 -21.5t-21 -29.5t-14.5 -27 q-7 14 -16 26.5t-23.5 30t-17.5 21.5q-20 24 -31 35q-64 -50 -104 -116.5t-40 -135.5zM289 145q0 70 67 101v-117q0 -49 -26 -49q-41 0 -41 65z" />
<glyph unicode="&#xe07;" horiz-adv-x="675" d="M35 342q100 -59 180 -140.5t150 -201.5h137v670q0 59 -35.5 91t-91.5 32q-60 0 -95.5 -42.5t-35.5 -105.5q0 -68 40.5 -126.5t102.5 -98.5v-270q-56 84 -156.5 170t-195.5 139v-117zM313 639q0 76 47 76q9 0 18 -12t9 -33v-156q-29 13 -51.5 52.5t-22.5 72.5z" />
<glyph unicode="&#xe08;" horiz-adv-x="870" d="M68 584l75 -92q26 75 104.5 136.5t166.5 61.5q84 0 126 -42.5t42 -121.5v-483h-11q-45 250 -89.5 349.5t-119.5 111.5q-35 5 -70 -14t-42 -60q-10 -64 43.5 -133t161.5 -88q1 -4 2.5 -11t4 -17.5t3.5 -16.5q3 -14 7.5 -36.5t12 -59.5t13.5 -68h198v526q0 128 -74 197.5 t-210 69.5q-105 0 -198.5 -58t-145.5 -151zM313 406q0 13 11 22.5t24 9.5q59 -7 92 -162q-56 11 -91.5 54.5t-35.5 75.5z" />
<glyph unicode="&#xe09;" horiz-adv-x="880" d="M66 612l57 -104q41 87 112.5 132.5t147.5 45.5q197 0 197 -156v-217q-10 -10 -97 -84t-110 -92v234q0 59 -35.5 91t-91.5 32q-59 0 -95 -42.5t-36 -105.5q0 -68 40.5 -126.5t102.5 -98.5v-121h96l148 129q0 -60 39 -102.5t96 -42.5q63 0 102 47t39 106q0 96 -82 178v220 q0 117 -86 187.5t-215 70.5q-99 0 -186.5 -47.5t-142.5 -133.5zM186 340q0 76 45 76q9 0 18 -12t9 -33v-156q-29 13 -50.5 52.5t-21.5 72.5zM598 139q0 52 41 97q43 -35 43 -97q0 -26 -10.5 -44.5t-32.5 -18.5q-17 0 -29 19.5t-12 43.5z" />
<glyph unicode="&#xe0a;" horiz-adv-x="817" d="M104 604q0 -60 42.5 -94.5t97.5 -17.5q34 9 49.5 40.5t11 64t-23.5 48.5h-5q21 -86 -30 -96q-19 -5 -34 4.5t-19 32.5q-5 35 17.5 70t72.5 42q61 7 90.5 -23t27.5 -77q-3 -42 -59 -115q-47 -63 -73.5 -116.5t-26.5 -112.5v-74q0 -196 198 -196q111 0 157 42.5t46 147.5 v258q0 103 -57 160q103 79 137 205l-82 57q-5 -31 -25 -72q-32 -73 -116 -125q-19 63 -67.5 99.5t-121.5 36.5q-85 0 -146 -55t-61 -134zM356 205v49q0 63 76 170q6 10 21.5 35t25.5 42.5t17 35.5q17 -16 25.5 -43t8.5 -48v-266q0 -57 -20 -76.5t-80 -19.5q-41 0 -57.5 29 t-16.5 92z" />
<glyph unicode="&#xe0b;" horiz-adv-x="817" d="M72 541q0 -60 32.5 -95t83.5 -30q34 4 53.5 32t24.5 68h-2q-8 -19 -28.5 -31t-38.5 -8q-43 9 -43 70q0 36 21 75t40 58q21 -21 31 -35q40 -51 55 -98h2q10 28 47 94q20 28 29 37q18 -9 31 -25q28 -28 20 -67q-6 -31 -28 -64t-48.5 -62t-52 -59.5t-42.5 -68.5t-17 -78v-74 q0 -196 200 -196q112 0 156.5 42t44.5 148v19v239q0 103 -57 160q107 80 137 205l-84 55q-4 -36 -14 -66q-32 -77 -101 -127q-40 91 -145 134q-10 -12 -25 -35q-3 -5 -15.5 -21.5t-21 -29.5t-14.5 -27q-7 14 -16 26.5t-23.5 30t-17.5 21.5q-20 24 -31 35 q-64 -50 -103.5 -116.5t-39.5 -135.5zM358 205v49q0 42 27.5 86.5t68 94t56.5 81.5l12 -18q10 -24 8 -52v-266q0 -57 -20 -76.5t-80 -19.5q-40 0 -56 29t-16 92z" />
<glyph unicode="&#xe0c;" horiz-adv-x="1220" d="M100 580q8 -5 25.5 -14t24.5 -13q16 -7 42 -21.5t37 -19.5q-25 -31 -34 -67.5t-9 -102.5v-96v-140q0 -59 35.5 -90.5t89.5 -31.5q60 0 95.5 42t35.5 105q0 68 -39.5 125.5t-101.5 97.5q0 34 2.5 56t12 50t33 44t61.5 20l-146 82q86 86 180 86q90 0 141.5 -51t51.5 -137 v-174q-57 -16 -92 -68.5t-37 -107.5q-2 -77 27.5 -123.5t93.5 -46.5q75 0 99 46t24 158v72q144 -31 157 -260h138v793l-115 -70v-528q-11 47 -57.5 90.5t-122.5 50.5v162q0 91 -44.5 160t-113 102t-148.5 33q-181 0 -346 -213zM301 106v156q29 -13 50.5 -52.5t21.5 -72.5 q0 -76 -45 -76q-11 0 -19 11.5t-8 33.5zM569 145q0 37 18.5 65t49.5 42v-143q0 -50 -27 -50q-41 0 -41 86z" />
<glyph unicode="&#xe0d;" horiz-adv-x="1187" d="M100 580q8 -5 25.5 -14t24.5 -13q16 -7 42 -21.5t37 -19.5q-25 -31 -34 -67.5t-9 -102.5v-96v-140q0 -59 35.5 -90.5t89.5 -31.5q60 0 95.5 42t35.5 105q0 68 -39.5 125.5t-101.5 97.5q0 34 2.5 56t12 50t33 44t61.5 20l-146 82q89 86 172 86q79 0 124.5 -57.5 t45.5 -140.5v-424q11 -31 77.5 -50.5t127.5 -19.5q62 0 127 19.5t76 50.5v723l-115 -58v-629q-34 -10 -88 -10q-58 0 -88 10v392q0 133 -83 214t-202 81q-178 0 -338 -213zM301 106v156q29 -13 50.5 -52.5t21.5 -72.5q0 -76 -45 -76q-11 0 -19 11.5t-8 33.5zM598 -156 q0 -69 56 -107t128 -38h21q88 5 152.5 69.5t64.5 153.5v39h-49q-13 -91 -76 -141q-29 49 -75 88t-97 43q-58 4 -91.5 -28.5t-33.5 -78.5zM682 -135q25 28 81.5 -4t74.5 -78q-40 -22 -81.5 -14t-67 38t-7.5 58z" />
<glyph unicode="&#xe0e;" horiz-adv-x="952" d="M111 578l161 -91v-131q-62 -40 -101.5 -98.5t-39.5 -126.5q0 -63 35.5 -105t95.5 -42q54 0 90.5 31.5t36.5 90.5v400l12 29l-131 73q100 86 209 86q77 0 131 -56.5t54 -131.5v-721l-23 -14q-3 3 -9 8t-9 8q-7 5 -37 29q7 55 2 81t-23 52h-41q15 -15 15 -43q0 -25 -4 -45 q-16 13 -41 24q-52 24 -127 21q-62 -5 -100 -35.5t-38 -77.5q0 -49 41 -79.5t117 -30.5q94 0 162 65q38 -38 78 -90l151 88v760q0 133 -88.5 210t-210.5 77q-204 0 -368 -215zM201 137q0 33 21 72.5t50 52.5v-156q0 -45 -26 -45q-45 0 -45 76zM305 -205q0 39 57 49 q27 5 68 -6.5t68 -38.5q-18 -23 -51 -37t-64 -14q-78 0 -78 47z" />
<glyph unicode="&#xe0f;" horiz-adv-x="952" d="M111 578l161 -91v-131q-62 -40 -101.5 -98.5t-39.5 -126.5q0 -63 35.5 -105t95.5 -42q54 0 90.5 31.5t36.5 90.5v400l12 29l-131 73q100 86 209 86q77 0 131 -56.5t54 -131.5v-670l-66 62l-76 -107q-6 0 -10 2q-8 3 -23 21q10 24 15 58.5t-4 76.5h-31q13 -63 -25 -101 q-82 59 -165 50q-56 -10 -89.5 -47.5t-17.5 -88.5q19 -56 73.5 -73.5t114.5 2.5t99 67q7 -7 21.5 -22.5t21.5 -22.5q3 -4 10.5 -12.5t11.5 -13.5q3 6 45 69l31 43l123 -112l55 30v789q0 133 -88.5 210t-210.5 77q-204 0 -368 -215zM201 137q0 33 21 72.5t50 52.5v-156 q0 -45 -26 -45q-45 0 -45 76zM243.5 -187q17.5 25 63.5 25q23 0 52 -12t49 -29q-12 -19 -42.5 -35.5t-56.5 -17.5q-43 -3 -63 20.5t-2.5 48.5z" />
<glyph unicode="&#xe10;" horiz-adv-x="819" d="M49 -227q7 51 49.5 77.5t95.5 19.5t87 -44q8 36 8.5 61.5t-3 44t-3.5 23.5q44 -64 32 -172q9 -19 11 -25q9 -20 12 -61q21 37 31 61q42 103 49 136q57 -133 106 -195q16 -26 45 -55q43 51 43 120q0 28 -12 42t-31 14q-37 0 -37 -58q-24 35 -5.5 71.5t63.5 47.5 q53 10 89 -24.5t36 -89.5q0 -132 -133 -242q-29 26 -58 63q-61 72 -106 158q-18 -47 -37.5 -83t-38 -64.5t-25.5 -40.5q-10 77 -22 110q-3 8 -8 21.5t-6 17.5q-56 -49 -119 -41q-51 5 -84 35.5t-29 71.5zM66 510h282q184 0 184 -137v-330h-26q-28 162 -53 242t-56.5 113.5 t-85.5 41.5q-36 5 -70 -13.5t-40 -59.5q-10 -65 42.5 -134t159.5 -88q1 -10 11 -49q9 -46 18 -96h213v352q0 141 -73 200.5t-250 59.5h-84q34 34 80 53t90 19q84 0 135.5 -22t101.5 -78l45 118q-113 91 -260 91q-133 0 -229.5 -78t-134.5 -205zM125 -233q0 -33 47 -33 q18 0 27.5 1t26 8t28.5 21q-10 16 -36.5 27.5t-47.5 11.5q-45 0 -45 -36zM264 342q0 13 11 23t24 10q8 -1 15 -4.5t13.5 -10.5t11.5 -13t11 -18t9.5 -19.5t8.5 -23.5t7.5 -23.5t8 -25.5t7.5 -24q-59 11 -93 54t-34 75z" />
<glyph unicode="&#xe11;" horiz-adv-x="1052" d="M37 541q0 -60 33 -95t84 -30q66 8 77 100h-2q-8 -19 -28.5 -31t-38.5 -8q-43 9 -43 70q0 36 21 75t40 58q21 -21 31 -35q40 -51 55 -98h2q10 28 47 94q20 28 29 37q17 -11 31 -29q28 -32 28 -69q0 -20 -24.5 -53t-54 -64t-54 -74t-24.5 -82v-307h149l275 567q14 36 30 64 q31 61 45 61q12 -1 15.5 -15t3.5 -44v-662l115 47v590q0 98 -25.5 141.5t-95.5 43.5q-43 0 -71 -22.5t-54 -72.5q-16 -44 -271 -540v153q0 30 14.5 57t35.5 48.5t42 43.5t35.5 52.5t14.5 65.5q0 72 -49 132.5t-111 82.5l-12 -16t-15 -19q-2 -3 -21.5 -31.5t-27.5 -46.5 q-7 14 -16 26.5t-23.5 30t-17.5 21.5q-20 24 -31 35q-64 -50 -103.5 -116.5t-39.5 -135.5z" />
<glyph unicode="&#xe12;" horiz-adv-x="1247" d="M180 0h193q68 113 109 191.5t62.5 141.5t18.5 104t-28 69q-25 25 -63.5 29.5t-72.5 -19.5q-32 -26 -48 -72.5t-4 -108t61 -112.5q-8 -21 -21 -41q-1 -1 -31 -52.5t-55 -94.5h-25l21 244v221q0 75 15.5 115t56.5 63l114 -111l107 113q74 -42 74 -180v-170 q-57 -16 -92 -68.5t-37 -107.5q-4 -170 120 -170q75 0 99 46t24 158v72q144 -32 158 -260h137v793l-115 -68v-530q-15 49 -59.5 91t-120.5 50v178q0 206 -207 279l-90 -95l-88 95q-213 -75 -213 -279v-514zM412 351q-6 37 0.5 63t17.5 41q10 16 27 16q14 0 22 -8 q13 -10 15 -30t-6 -46t-19.5 -51t-26.5 -51q-24 29 -30 66zM596 145q0 37 18.5 65t49.5 42v-143q0 -50 -27 -50q-41 0 -41 86z" />
<glyph unicode="&#xe13;" horiz-adv-x="1230" d="M100 580q8 -5 25.5 -14t24.5 -13q16 -7 42 -21.5t37 -19.5q-25 -31 -34 -67.5t-9 -102.5v-236q0 -59 35.5 -90.5t89.5 -31.5q60 0 95.5 42t35.5 105q0 68 -39.5 125.5t-101.5 97.5q0 34 2.5 56t12 50t33 44t61.5 20l-146 82q89 86 172 86q79 0 124.5 -57.5t45.5 -140.5 v-494h96l148 129q0 -60 39.5 -102.5t95.5 -42.5q63 0 103 47t40 106q0 94 -84 178v478l-114 -58v-422l-207 -176v361q0 133 -83 214t-202 81q-178 0 -338 -213zM301 106v156q29 -13 50.5 -52.5t21.5 -72.5q0 -76 -45 -76q-11 0 -19 11.5t-8 33.5zM946 139q0 52 41 97 q45 -37 45 -97q0 -26 -11.5 -44.5t-33.5 -18.5q-17 0 -29 19.5t-12 43.5z" />
<glyph unicode="&#xe14;" horiz-adv-x="952" d="M180 0h146q177 201 236.5 305t19.5 164q-19 29 -55 41t-76 -6q-36 -22 -61 -64.5t-25.5 -104.5t36.5 -122q0 -1 -10 -14q-7 -6 -17.5 -18.5t-32.5 -39t-44 -51.5v412q0 188 184 188q87 0 135 -41.5t48 -124.5v-553l114 54v493q0 132 -79.5 203.5t-217.5 71.5 q-143 0 -222 -71t-79 -204v-518zM430.5 338.5q2.5 35.5 13 59t25.5 38.5q14 13 28.5 12t20.5 -12q23 -23 -1 -72t-68 -96q-21 35 -18.5 70.5z" />
<glyph unicode="&#xe15;" horiz-adv-x="952" d="M180 0h146q177 201 236.5 305t19.5 164q-19 29 -55 41t-76 -6q-36 -22 -61 -64.5t-25.5 -104.5t36.5 -122q0 -1 -10 -14q-7 -6 -17.5 -18.5t-32.5 -39t-44 -51.5v410q0 75 15.5 115t56.5 63l114 -111l107 113q40 -23 57 -67.5t17 -118.5v-523l114 54v489q0 206 -207 279 l-90 -95l-88 95q-213 -75 -213 -279v-514zM430.5 338.5q2.5 35.5 13 59t25.5 38.5q14 13 28.5 12t20.5 -12q23 -23 -1 -72t-68 -96q-21 35 -18.5 70.5z" />
<glyph unicode="&#xe16;" horiz-adv-x="925" d="M100 580q8 -5 25.5 -14t24.5 -13q16 -7 42 -21.5t37 -19.5q-25 -31 -34 -67.5t-9 -102.5v-236q0 -59 35.5 -90.5t89.5 -31.5q60 0 95.5 42t35.5 105q0 68 -39.5 125.5t-101.5 97.5q0 34 2.5 56t12 50t33 44t61.5 20l-146 82q86 86 180 86q89 0 140 -57.5t51 -140.5v-523 l115 54v473q0 133 -89.5 214t-216.5 81q-97 0 -180 -52.5t-164 -160.5zM301 106v156q29 -13 50.5 -52.5t21.5 -72.5q0 -76 -45 -76q-11 0 -19 11.5t-8 33.5z" />
<glyph unicode="&#xe17;" horiz-adv-x="974" d="M96 645q0 -68 40 -126.5t102 -98.5v-420h116l203 575q23 68 41 95.5t51 27.5q22 0 28.5 -19t6.5 -58v-650l117 54v593q0 175 -146 175q-144 0 -190 -166l-111 -316v359q0 59 -36.5 91t-90.5 32q-60 0 -95.5 -42.5t-35.5 -105.5zM166 639q0 76 45 76q11 0 19 -11.5 t8 -33.5v-156q-29 13 -50.5 52.5t-21.5 72.5z" />
<glyph unicode="&#xe18;" horiz-adv-x="854" d="M94 516l250 -22q117 -8 170 -39t53 -105v-235q-23 -17 -49 -23t-76 -6q-75 0 -125 29v307l-114 -60v-262q0 -41 73.5 -78.5t165.5 -37.5q90 0 164 35.5t74 78.5v256q0 43 -14.5 78.5t-35.5 59t-56.5 41.5t-66.5 28t-76 17.5t-75 10t-73 5.5q-5 0 -16 1t-19 1 q26 47 79.5 72.5t123.5 25.5q72 0 127 -29t114 -94l25 123q-102 99 -252 99q-279 0 -371 -277z" />
<glyph unicode="&#xe19;" horiz-adv-x="968" d="M96 645q0 -68 40 -126.5t102 -98.5v-420h153q87 305 203 305q23 0 39 -8q6 -2 12 -8q-55 -73 -55 -158q0 -60 40 -103.5t97 -43.5q60 0 99.5 46t39.5 105q0 106 -84 184v474l-114 -58v-354q-14 7 -17 8q-13 8 -47 8q-85 0 -154 -68.5t-96 -158.5v500q0 59 -36.5 91 t-90.5 32q-60 0 -95.5 -42.5t-35.5 -105.5zM166 639q0 76 45 76q11 0 19 -11.5t8 -33.5v-156q-29 13 -50.5 52.5t-21.5 72.5zM686 137q0 64 43 101q41 -44 41 -101q0 -25 -11.5 -44t-29.5 -19q-22 0 -32.5 18.5t-10.5 44.5z" />
<glyph unicode="&#xe1a;" horiz-adv-x="976" d="M96 645q0 -68 40 -126.5t102 -98.5v-320q0 -42 86.5 -79t197.5 -37q100 0 190.5 37.5t90.5 76.5v695l-117 -56v-624q-47 -35 -162 -35q-128 0 -170 39v553q0 59 -36.5 91t-90.5 32q-60 0 -95.5 -42.5t-35.5 -105.5zM166 639q0 76 45 76q11 0 19 -11.5t8 -33.5v-156 q-29 13 -50.5 52.5t-21.5 72.5z" />
<glyph unicode="&#xe1b;" horiz-adv-x="976" d="M96 645q0 -68 40 -126.5t102 -98.5v-311q0 -43 86.5 -80t197.5 -37q100 0 190.5 37.5t90.5 76.5v1139l-117 -61v-1063q-47 -35 -162 -35q-128 0 -170 39v545q0 59 -36.5 91t-90.5 32q-60 0 -95.5 -42.5t-35.5 -105.5zM166 639q0 76 45 76q11 0 19 -11.5t8 -33.5v-156 q-29 13 -50.5 52.5t-21.5 72.5z" />
<glyph unicode="&#xe1c;" horiz-adv-x="952" d="M178 221q0 -102 57 -167t148 -70l98 153l99 -153q87 5 142.5 72t55.5 169v568l-114 -60v-520q0 -77 -46 -111l-137 205l-141 -205q-45 33 -45 111v207q61 41 101 99.5t40 125.5q0 63 -35.5 105.5t-95.5 42.5q-54 0 -90.5 -32t-36.5 -91v-449zM295 514v156q0 22 8 33.5 t19 11.5q45 0 45 -76q0 -33 -21.5 -72.5t-50.5 -52.5z" />
<glyph unicode="&#xe1d;" horiz-adv-x="952" d="M178 221q0 -102 57 -167t148 -70l98 153l99 -153q87 5 142.5 72t55.5 169v1020l-114 -61v-971q0 -77 -46 -111l-137 205l-141 -205q-45 33 -45 111v207q61 41 101 99.5t40 125.5q0 63 -35.5 105.5t-95.5 42.5q-54 0 -90.5 -32t-36.5 -91v-449zM295 514v156q0 22 8 33.5 t19 11.5q45 0 45 -76q0 -33 -21.5 -72.5t-50.5 -52.5z" />
<glyph unicode="&#xe1e;" horiz-adv-x="1015" d="M96 645q0 -68 40 -126.5t102 -98.5v-420h151l152 469l151 -469h150v793l-115 -60v-522l-186 582l-187 -592v469q0 59 -36.5 91t-90.5 32q-60 0 -95.5 -42.5t-35.5 -105.5zM166 639q0 76 45 76q11 0 19 -11.5t8 -33.5v-156q-29 13 -50.5 52.5t-21.5 72.5z" />
<glyph unicode="&#xe1f;" horiz-adv-x="1015" d="M96 645q0 -68 40 -126.5t102 -98.5v-420h151l152 469l151 -469h150v1247l-115 -59v-977l-186 582l-187 -592v469q0 59 -36.5 91t-90.5 32q-60 0 -95.5 -42.5t-35.5 -105.5zM166 639q0 76 45 76q11 0 19 -11.5t8 -33.5v-156q-29 13 -50.5 52.5t-21.5 72.5z" />
<glyph unicode="&#xe20;" horiz-adv-x="952" d="M111 578l161 -91v-131q-62 -40 -101.5 -98.5t-39.5 -126.5q0 -63 35.5 -105t95.5 -42q54 0 90.5 31.5t36.5 90.5v400l12 29l-131 73q100 86 209 86q77 0 131 -56.5t54 -131.5v-535h2l112 52v483q0 133 -88.5 210t-210.5 77q-204 0 -368 -215zM201 137q0 33 21 72.5 t50 52.5v-156q0 -45 -26 -45q-45 0 -45 76z" />
<glyph unicode="&#xe21;" horiz-adv-x="968" d="M158 154q0 -76 38 -123t105 -47q32 0 54 8.5t34.5 22.5t19 42t8 55.5t1.5 75.5v66q85 -20 150 -89.5t77 -164.5h150v793l-117 -58v-567q-44 68 -113.5 117.5t-146.5 62.5v322q0 59 -35.5 91t-89.5 32q-60 0 -95.5 -42.5t-35.5 -105.5q0 -68 39.5 -126.5t101.5 -98.5v-74 q-75 -30 -110 -75.5t-35 -116.5zM231 639q0 76 45 76q11 0 19 -11.5t8 -33.5v-156q-29 13 -50.5 52.5t-21.5 72.5zM236 147q0 89 67 115v-149q0 -30 -6 -40t-18 -10q-18 0 -30.5 23.5t-12.5 60.5z" />
<glyph unicode="&#xe22;" horiz-adv-x="929" d="M156 578q0 -102 69 -177q-61 -55 -61 -145q0 -117 83.5 -194.5t209.5 -77.5q135 0 216 72.5t81 193.5v543l-115 -60v-483q0 -66 -55 -117t-127 -51q-69 0 -123.5 49.5t-54.5 112.5q0 32 13 60t36 38q122 -36 215 64q-93 0 -148 9.5t-88 41.5q63 43 99 100.5t36 114.5 q0 56 -29.5 88.5t-82.5 32.5q-58 0 -99 -36.5t-58 -83.5t-17 -95zM242 606q6 39 26.5 74t53.5 35q10 0 19 -2t20 -14.5t8 -34.5q-11 -90 -107 -148q-26 16 -20 90z" />
<glyph unicode="&#xe23;" horiz-adv-x="718" d="M78 512q20 2 69 2h66q110 0 157.5 -25.5t47.5 -95.5v-37q-61 -41 -101.5 -99.5t-40.5 -125.5q0 -63 36 -105t96 -42q57 0 92 31.5t35 90.5v285q0 121 -69 174t-222 51q32 41 67.5 58.5t85.5 17.5q83 0 205 -119v146q-100 74 -215 74q-118 0 -196 -77.5t-113 -203.5z M346 137q0 32 22 72t50 53v-156q0 -21 -8 -33t-17 -12q-47 0 -47 76z" />
<glyph unicode="&#xe24;" horiz-adv-x="925" d="M100 580q8 -5 25.5 -14t24.5 -13q16 -7 42 -21.5t37 -19.5q-25 -31 -34 -67.5t-9 -102.5v-236q0 -59 35.5 -90.5t89.5 -31.5q60 0 95.5 42t35.5 105q0 68 -39.5 125.5t-101.5 97.5q0 34 2.5 56t12 50t33 44t61.5 20l-146 82q86 86 180 86q89 0 140 -57.5t51 -140.5v-816 l115 54v766q0 133 -89.5 214t-216.5 81q-97 0 -180 -52.5t-164 -160.5zM301 106v156q29 -13 50.5 -52.5t21.5 -72.5q0 -76 -45 -76q-11 0 -19 11.5t-8 33.5z" />
<glyph unicode="&#xe25;" horiz-adv-x="933" d="M125 600l72 -90q50 83 119 131.5t143 48.5q84 0 134 -42t50 -118v-251q-29 86 -89.5 153.5t-139.5 71.5q-75 5 -133.5 -42.5t-86.5 -118t-28 -144.5q0 -83 47 -149t131 -66q55 0 89.5 37.5t29.5 93.5q-5 62 -47.5 120.5t-112.5 92.5q41 75 107 75q78 0 143.5 -121.5 t95.5 -310.5l111 47v517q0 113 -89.5 185.5t-211.5 72.5q-98 0 -188 -52.5t-146 -140.5zM262 164q-5 60 12 98q53 -30 81 -70t28 -79q0 -31 -15 -41.5t-32 -10.5q-33 0 -50.5 31.5t-23.5 71.5z" />
<glyph unicode="&#xe26;" horiz-adv-x="952" d="M111 578l161 -91v-131q-62 -40 -101.5 -98.5t-39.5 -126.5q0 -63 35.5 -105t95.5 -42q54 0 90.5 31.5t36.5 90.5v400l12 29l-131 73q100 86 209 86q77 0 131 -56.5t54 -131.5v-815h2l112 51v764q0 133 -88.5 210t-210.5 77q-204 0 -368 -215zM201 137q0 33 21 72.5 t50 52.5v-156q0 -45 -26 -45q-45 0 -45 76z" />
<glyph unicode="&#xe27;" horiz-adv-x="761" d="M14 582l82 -74q70 184 205 184q81 0 125.5 -40.5t44.5 -112.5v-183q-62 -40 -101.5 -98.5t-39.5 -126.5q0 -63 35.5 -105t95.5 -42q54 0 89.5 31.5t35.5 90.5v420q0 117 -77 192t-200 75q-102 0 -176 -56t-119 -155zM399 137q0 33 21.5 72.5t50.5 52.5v-156 q0 -22 -8 -33.5t-19 -11.5q-45 0 -45 76z" />
<glyph unicode="&#xe28;" horiz-adv-x="952" d="M180 0h178q8 47 19.5 101t13.5 63q1 6 3.5 16.5t4 17.5t2.5 11q107 19 160 88t43 133q-6 41 -40.5 60t-69.5 14q-76 -12 -121 -112t-90 -349h-4h-3l21 236v206q0 105 43.5 156t140.5 51q89 0 136 -71.5t47 -167.5v-482l114 52v426q0 110 -37 176q85 99 82 196l-92 70 q26 -83 -41 -184q-36 38 -92.5 62t-116.5 24q-141 0 -221 -78t-80 -213v-502zM414 276q32 103 50 130q20 28 42 32q13 0 24 -9.5t11 -22.5q0 -33 -34 -76t-93 -54z" />
<glyph unicode="&#xe29;" horiz-adv-x="987" d="M96 645q0 -68 40 -126.5t102 -96.5v-322q0 -42 88 -79t198 -37q97 0 188 37.5t91 76.5v250q84 70 84 166l-43 39q4 -32 -10 -63t-31 -44v347l-117 -60v-250q-57 57 -127 60q-64 4 -100.5 -28.5t-36.5 -78.5q0 -68 62 -106.5t141 -38.5h22q11 0 39 4v-182 q-47 -35 -160 -35q-130 0 -172 39v555q0 58 -35.5 89.5t-89.5 31.5q-60 0 -96.5 -42.5t-36.5 -105.5zM180 639q0 70 43 70q15 0 15 -37v-146q-58 52 -58 113zM507 424q-5 18 7 33q27 29 90.5 -4t81.5 -78q-51 -32 -118 -5q-51 20 -61 54z" />
<glyph unicode="&#xe2a;" horiz-adv-x="925" d="M115 602l71 -84q47 81 118 128.5t145 47.5q64 0 108 -24q-92 -110 -184 -166q-90 -17 -148.5 -106.5t-58.5 -198.5q0 -83 47 -149t131 -66q55 0 89.5 37.5t29.5 93.5q-5 62 -47.5 120.5t-112.5 92.5q41 75 107 75q78 0 143.5 -121.5t95.5 -310.5l101 58v508q0 88 -56 153 q37 46 51 78q9 18 15 33l-78 86q3 -43 -25 -92l-30 -43q-71 41 -178 41q-98 0 -187 -51.5t-147 -139.5zM262 164q-5 60 12 98q53 -30 81 -70t28 -79q0 -31 -15 -41.5t-32 -10.5q-33 0 -50.5 31.5t-23.5 71.5zM489 483q88 68 134 125q12 -36 12 -76v-229q-25 56 -66 108.5 t-80 71.5z" />
<glyph unicode="&#xe2b;" horiz-adv-x="968" d="M96 645q0 -68 40 -126.5t102 -98.5v-420h98q56 69 190 213q27 32 77.5 87t64.5 71v-400l114 54v456q58 70 58 158q0 63 -39.5 108.5t-98.5 45.5q-60 0 -99.5 -45.5t-39.5 -108.5q0 -89 64 -164q-162 -175 -273 -301v496q0 59 -36.5 91t-90.5 32q-60 0 -95.5 -43 t-35.5 -105zM166 639q0 76 45 76q11 0 19 -11.5t8 -33.5v-156q-29 13 -50.5 52.5t-21.5 72.5zM647 637q0 29 13.5 50.5t41.5 21.5q27 0 39.5 -21.5t12.5 -50.5q0 -31 -12.5 -63.5t-39.5 -49.5q-55 42 -55 113z" />
<glyph unicode="&#xe2c;" horiz-adv-x="1019" d="M96 645q0 -68 40 -126.5t102 -98.5v-420h155l148 297l145 -297h156v627q96 110 88 254l-58 -13q-4 -107 -71 -174q-30 53 -94.5 80.5t-131.5 16.5q-65 -11 -100.5 -55.5t-30.5 -94.5q3 -49 41.5 -79.5t88 -38.5t96.5 1q21 4 37 11q2 1 8.5 4t11.5 4v-414l-186 336 l-187 -346v551q0 59 -36.5 91t-90.5 32q-60 0 -95.5 -42.5t-35.5 -105.5zM166 639q0 76 45 76q11 0 19 -11.5t8 -33.5v-156q-29 13 -50.5 52.5t-21.5 72.5zM527 630q-10 22 5 52q13 29 55.5 34.5t85.5 -16.5t56 -63q-47 -44 -120 -43q-64 0 -82 36z" />
<glyph unicode="&#xe2d;" horiz-adv-x="954" d="M145 602l70 -88q44 85 113 131.5t151 46.5q85 0 136 -45t51 -123v-276q0 -68 -55.5 -116t-131.5 -48q-59 0 -111 29.5t-77 87.5q101 12 174.5 71.5t73.5 133.5q0 46 -35.5 81t-93.5 35q-83 0 -155.5 -78.5t-72.5 -183.5q0 -117 85.5 -196.5t211.5 -79.5q136 0 218.5 72 t82.5 194v280q0 116 -89 189.5t-212 73.5q-98 0 -187 -51.5t-147 -139.5zM279 285q10 66 50.5 110.5t84.5 44.5q41 0 41 -32q0 -11 -8.5 -28.5t-26.5 -39t-55.5 -37.5t-85.5 -18z" />
<glyph unicode="&#xe2e;" horiz-adv-x="933" d="M133 621q0 -101 162 -101q85 0 180 22t158 70q10 -29 10 -118v-248q0 -72 -47.5 -117t-122.5 -45q-147 0 -176 92q99 5 175.5 65.5t76.5 135.5q0 46 -30.5 78t-94.5 32q-88 0 -157.5 -75.5t-69.5 -182.5q0 -121 71.5 -183t204.5 -62q135 0 211 71t76 193v231 q0 148 -47 209q18 32 28 74q16 84 -32 139q2 -68 -29 -121q-14 -25 -31 -39q-29 20 -85 36t-122 16q-141 0 -225 -50.5t-84 -121.5zM231 626v3q8 40 75 61t126 21q41 0 84 -9.5t59 -25.5q1 -1 -15.5 -12.5t-50.5 -28.5t-71 -27q-207 -38 -207 18zM293 252q6 71 42.5 113 t82.5 47q48 4 52 -33q4 -38 -40 -79q-56 -51 -137 -48z" />
<glyph unicode="&#xe2f;" horiz-adv-x="815" d="M57 600q0 -98 69.5 -170t170.5 -72q130 0 229 146v-533l115 54v768h-109q-5 -74 -34.5 -149.5t-84.5 -131t-120 -55.5q-50 0 -70 12q50 26 83.5 78t33.5 115q0 56 -37 93.5t-94 37.5q-51 0 -87 -30.5t-50.5 -72.5t-14.5 -90zM135 598q-5 52 16.5 88.5t57.5 36.5 q26 0 41.5 -17.5t15.5 -43.5q0 -88 -94 -150q-5 3 -16 18q-18 26 -21 68z" />
<glyph unicode="&#xe30;" horiz-adv-x="839" d="M147 178q0 -78 55.5 -129t137.5 -51q159 0 352 211v162q-46 -85 -162.5 -187t-197.5 -102q18 7 35 24q39 49 45 113q6 56 -26 92.5t-89 36.5q-64 0 -107 -51t-43 -119zM147 604q0 -78 55.5 -129t137.5 -51q159 0 352 211v162q-46 -85 -162.5 -187t-197.5 -102q18 7 35 24 q39 49 45 113q6 56 -26 92.5t-89 36.5q-64 0 -107 -51t-43 -119zM225 190q5 32 25 56t45 24q15 0 27.5 -11t13.5 -32q4 -37 -20 -73.5t-56 -44.5q-11 9 -20 20q-17 30 -15 61zM225 616q5 32 25 56t45 24q15 0 27.5 -11t13.5 -32q4 -37 -20 -73.5t-56 -44.5q-11 9 -20 20 q-17 30 -15 61z" />
<glyph unicode="&#xe31;" d="M-565 1087q0 -87 74.5 -138.5t168.5 -51.5q244 0 392 229l-45 103q-61 -110 -157 -176t-194 -66q-28 0 -61 8q30 24 47.5 60.5t17.5 72.5q0 52 -29 82.5t-79 30.5q-61 0 -98 -45t-37 -109zM-485 1094q4 33 20 52t35 19q14 0 23.5 -9.5t9.5 -22.5q0 -29 -16.5 -61 t-45.5 -48q-15 7 -23.5 27t-2.5 43z" />
<glyph unicode="&#xe32;" horiz-adv-x="698" d="M-2 580l90 -84q25 87 70.5 137.5t101.5 50.5q68 0 109 -45t41 -113v-555l114 54v501q0 108 -72 187.5t-186 79.5q-98 0 -171.5 -58t-96.5 -155z" />
<glyph unicode="&#xe33;" horiz-adv-x="686" d="M-426 1055q0 -66 49.5 -111t118.5 -45t117.5 45t48.5 111q0 67 -48 112t-118 45t-119 -45t-49 -112zM-336 1055q0 35 22.5 53t55.5 18t55.5 -18t22.5 -53t-22.5 -52.5t-55.5 -17.5t-55.5 17.5t-22.5 52.5zM-14 590l88 -86q26 87 72.5 137.5t101.5 50.5q67 0 109 -45 t42 -112v-551l113 51v500q0 109 -72 187.5t-186 78.5q-94 0 -169.5 -59t-98.5 -152z" />
<glyph unicode="&#xe34;" d="M-791 918q118 14 175 14q222 0 438 -96q-18 168 -96 266t-218 98q-112 0 -191 -68t-108 -214zM-657 1020q55 89 168 92q140 -8 190 -133q-128 41 -346 41h-12z" />
<glyph unicode="&#xe35;" d="M-786 918q82 14 172 14q220 0 436 -96v436l-109 -45v-101q-74 74 -202 74q-112 0 -190.5 -68t-106.5 -214zM-655 1020q52 89 170 92q138 -8 188 -133q-128 41 -346 41h-12z" />
<glyph unicode="&#xe36;" d="M-791 918q96 16 177 16q229 0 436 -98q-16 150 -58 223q32 14 54 44t22 64q0 49 -31.5 79t-82.5 30q-36 0 -63.5 -21t-37 -42.5t-4.5 -26.5q-58 14 -113 14q-112 0 -191 -68t-108 -214zM-655 1020q54 92 166 92q141 -8 192 -133q-135 41 -348 41h-10zM-326 1167 q0 21 15.5 35.5t38.5 14.5q22 0 35.5 -14.5t13.5 -35.5t-13 -34t-36 -13t-38.5 13.5t-15.5 33.5z" />
<glyph unicode="&#xe37;" d="M-786 918q94 16 172 16q229 0 436 -98v448l-80 -39v-170q-12 20 -45 53q-19 14 -27 19v139l-82 -41v-55q-45 10 -77 10q-112 0 -190.5 -68t-106.5 -214zM-655 1020q54 92 170 92q137 -8 186 -131q-116 39 -297 39h-59z" />
<glyph unicode="&#xe38;" d="M-426 -186q0 -42 35 -71.5t100 -39.5v-176l117 49v221q0 48 -41.5 83.5t-93.5 35.5q-58 0 -87.5 -29t-29.5 -73zM-365 -186q0 39 35 39q25 0 37 -25.5t6 -63.5v-2q-35 1 -56.5 17t-21.5 35z" />
<glyph unicode="&#xe39;" d="M-600 -184q0 -43 34 -72t99 -39v-78q0 -38 46 -60t97 -22q59 0 101.5 23t42.5 59v312l-107 -56v-231q-8 -8 -35 -8q-24 0 -40 8v147q0 51 -34.5 84t-88.5 33q-56 0 -85.5 -29t-29.5 -71zM-543 -174q6 29 37 29q55 0 45 -84v-2q-46 1 -66.5 17t-15.5 40z" />
<glyph unicode="&#xe3a;" d="M-330 -162q0 -35 27 -59.5t65 -24.5q41 0 66 24t25 60q0 38 -25 61t-66 23q-39 0 -65.5 -23.5t-26.5 -60.5z" />
<glyph unicode="&#xe3f;" horiz-adv-x="884" d="M186 0h203v-74h84v78q123 17 191 88.5t69 188.5q0 139 -123 225q35 30 55.5 78.5t20.5 83.5q0 206 -213 239v123l-84 -53v-66h-203v-911zM297 100v353h92v-353h-92zM297 559v254h92v-254h-92zM473 109v335q145 -30 145 -165q0 -129 -145 -170zM473 563v242 q105 -25 105 -131q0 -42 -27.5 -71.5t-77.5 -39.5z" />
<glyph unicode="&#xe40;" horiz-adv-x="481" d="M170 106q0 -59 35 -90.5t92 -31.5q60 0 95.5 42t35.5 105q0 67 -40 125.5t-101 99.5v437l-117 -60v-627zM287 106v156q28 -13 49.5 -53t21.5 -72q0 -76 -47 -76q-9 0 -16.5 12t-7.5 33z" />
<glyph unicode="&#xe41;" horiz-adv-x="839" d="M170 106q0 -59 35 -90.5t92 -31.5q60 0 95.5 42t35.5 105q0 67 -40 125.5t-101 99.5v437l-117 -60v-627zM287 106v156q28 -13 49.5 -53t21.5 -72q0 -76 -47 -76q-9 0 -16.5 12t-7.5 33zM528 106q0 -59 35 -90.5t92 -31.5q59 0 94 42t35 105q0 68 -39.5 126.5t-101.5 98.5 v437l-115 -60v-627zM643 106v156q29 -13 50.5 -52.5t21.5 -72.5q0 -76 -45 -76q-9 0 -18 12t-9 33z" />
<glyph unicode="&#xe42;" horiz-adv-x="559" d="M-90 1012q56 6 113 6q111 0 150.5 -25.5t39.5 -95.5v-791q0 -59 36.5 -90.5t90.5 -31.5q60 0 95.5 42t35.5 105q0 68 -39.5 126.5t-101.5 98.5v541q0 108 -56.5 161.5t-201.5 57.5q58 78 141 78q51 0 109.5 -38.5t111.5 -115.5v185q-92 69 -221 69q-109 0 -187 -76 t-116 -206zM330 106v156q29 -13 50 -52.5t21 -72.5q0 -76 -45 -76q-26 0 -26 45z" />
<glyph unicode="&#xe43;" horiz-adv-x="563" d="M-106 1057q0 -55 34 -96t84 -41q55 0 90 40.5t35 96.5q0 63 -47 133q28 4 35 4q94 0 94 -166v-922q0 -59 35.5 -90.5t89.5 -31.5q60 0 95.5 42t35.5 105q0 68 -39.5 126.5t-101.5 98.5v672q0 123 -54 194.5t-151 71.5q-100 0 -167.5 -71.5t-67.5 -165.5zM-27 1053 q0 24 14.5 56t32.5 44q39 -48 39 -102q0 -28 -13 -43t-34 -15q-14 0 -26.5 18t-12.5 42zM334 106v156q29 -13 50.5 -52.5t21.5 -72.5q0 -76 -46 -76q-26 0 -26 45z" />
<glyph unicode="&#xe44;" horiz-adv-x="559" d="M-88 1212q65 -189 180 -319l121 174v-961q0 -59 36.5 -90.5t90.5 -31.5q60 0 95.5 42t35.5 105q0 68 -39.5 126.5t-101.5 98.5v916h-105l-139 -211q-14 23 -27.5 53.5t-20.5 50t-21.5 64.5t-20.5 63zM330 106v156q29 -13 50 -52.5t21 -72.5q0 -76 -45 -76q-26 0 -26 45z " />
<glyph unicode="&#xe45;" horiz-adv-x="698" d="M-2 582l82 -80q26 91 73 140.5t105 49.5q66 0 109 -50t43 -116v-848l114 54v794q0 108 -72 187.5t-186 79.5q-98 0 -171.5 -58.5t-96.5 -152.5z" />
<glyph unicode="&#xe46;" horiz-adv-x="806" d="M66 582q0 -66 35 -115t98 -49q41 0 71.5 37.5t30.5 81.5q0 97 -86 174q113 3 160 -181h33q46 168 92 168q16 0 16 -57v-963l117 54v886q0 175 -123 175q-73 0 -121 -91q-29 45 -68.5 68t-78.5 23q-74 0 -125 -67.5t-51 -143.5zM139 561q-2 25 4 57t21 44q26 -17 44.5 -53 t18.5 -66q0 -60 -34 -60q-6 0 -16 5t-22.5 24t-15.5 49z" />
<glyph unicode="&#xe47;" d="M-666 1073q0 -153 199 -196q-7 23 7.5 62.5t29.5 49.5l125 -112q65 22 96.5 59t13.5 86q-7 26 -33.5 40.5t-62.5 14.5q21 -14 29.5 -30.5t5.5 -29.5t-11 -24.5t-18 -17.5t-18 -6l-127 114q-30 -25 -37 -32q-4 -5 -13.5 -16.5t-15 -19t-13 -18.5t-13.5 -22q-64 44 -56 106 q5 38 42 66.5t96 28.5q45 0 84 -13q12 -4 32 -12l230 121l-105 33l-127 -64q-15 3 -36 6q-23 6 -72 6q-109 0 -170.5 -53.5t-61.5 -126.5z" />
<glyph unicode="&#xe48;" d="M-291 1331h109v299l-109 -49v-250z" />
<glyph unicode="&#xe49;" d="M-436 1374l74 -71q180 17 319 133q58 52 98 110l-69 92q-14 -61 -83 -135t-173 -112q15 15 30 36q33 54 33 97q0 59 -34.5 93t-92.5 32q-44 -2 -72.5 -30t-27.5 -69q8 -89 119 -112q-29 -21 -68 -41q-8 -3 -53 -23zM-365 1548q0 16 11 26.5t24 10.5q31 2 46.5 -25.5 t-3.5 -62.5q-30 0 -54 16t-24 35z" />
<glyph unicode="&#xe4a;" d="M-492 1434q0 -55 29.5 -90t85.5 -39q38 -2 60.5 28t9.5 84q-10 -29 -20 -39t-27 -10q-34 0 -50.5 30.5t-8 72.5t41.5 71q16 -11 62 -57q6 -6 15.5 -18.5t12.5 -16.5l31 37q27 39 51 49q27 -27 27 -96q0 -86 -31 -135h105q71 23 119 99.5t57 149.5l-78 88 q0 -185 -109 -268q41 189 -96 271q-14 -10 -26 -22.5t-30 -34.5t-20 -25q-58 58 -88 79q-66 -47 -94.5 -96t-28.5 -112z" />
<glyph unicode="&#xe4b;" d="M-428 1423h137v-110h113v110h137v107h-137v137l-113 -49v-88h-137v-107z" />
<glyph unicode="&#xe4c;" d="M-371 1415q-6 -52 25.5 -89t77.5 -42q55 -5 95 29t44 108q2 55 -16 101l43 14q82 30 125 70v147q-37 -56 -84 -93t-115 -61q-183 -70 -195 -184zM-291 1401q1 22 22.5 49t49.5 45q16 -25 18 -74q0 -33 -19.5 -51t-35.5 -18q-17 4 -27 18t-8 31z" />
<glyph unicode="&#xe4d;" d="M-426 1055q0 -66 49.5 -111t118.5 -45t117.5 45t48.5 111q0 67 -48 112t-118 45t-119 -45t-49 -112zM-336 1055q0 35 22.5 53t55.5 18t55.5 -18t22.5 -53t-22.5 -52.5t-55.5 -17.5t-55.5 17.5t-22.5 52.5z" />
<glyph unicode="&#xe4e;" d="M-498 979q1 -44 36 -66t87 -22q35 0 76 15t70 38l-41 37q-56 -18 -68 -18q-53 0 -53 24q0 20 21 32.5t45.5 16.5t52.5 4l53 52q-107 12 -107 30q0 33 90 33q17 0 37 -4l60 53q-78 19 -105 19q-74 0 -129 -28.5t-55 -84.5v-18q0 -7 4 -15q-29 -19 -37 -26q-37 -33 -37 -72 z" />
<glyph unicode="&#xe4f;" horiz-adv-x="960" d="M115 332q0 -141 106.5 -240.5t255.5 -99.5q152 0 258.5 99.5t106.5 240.5q0 143 -106.5 242.5t-258.5 99.5q-150 0 -256 -100t-106 -242zM186 330q0 117 84 196.5t207 79.5q126 0 210.5 -79.5t84.5 -196.5q0 -116 -84.5 -195.5t-210.5 -79.5q-123 0 -207 79.5t-84 195.5z M272 332q0 -79 60.5 -136t144.5 -57q87 0 146 56.5t59 136.5q0 82 -59 138t-146 56q-84 0 -144.5 -56.5t-60.5 -137.5zM340 332q0 54 40.5 91.5t96.5 37.5q57 0 97 -37.5t40 -91.5t-40 -91.5t-97 -37.5q-56 0 -96.5 37.5t-40.5 91.5z" />
<glyph unicode="&#xe50;" horiz-adv-x="935" d="M131 266q0 -38 10 -75t35 -75.5t62 -67t96 -46.5t133 -18q140 0 239 78t99 204q0 131 -97 207t-241 76q-138 0 -237 -77.5t-99 -205.5zM236 266q0 32 11.5 63t36 61t72 48.5t111.5 18.5q103 0 168 -52.5t65 -138.5t-66.5 -137t-166.5 -51q-97 0 -164 51.5t-67 136.5z" />
<glyph unicode="&#xe51;" horiz-adv-x="935" d="M133 285q0 -111 101 -172q88 -53 195 -38q109 15 154 92q23 40 23 91q0 52 -32.5 84.5t-88.5 32.5q-78 0 -119.5 -73.5t-0.5 -143.5q-25 0 -53.5 10.5t-53.5 38.5t-25 69q0 82 71.5 132.5t158.5 50.5q102 0 169.5 -44.5t67.5 -131.5q0 -91 -61.5 -169t-208.5 -153l94 -24 q125 43 202 142t77 202q0 90 -47 152t-121.5 89t-171.5 27q-133 0 -231.5 -73t-98.5 -191zM418 225q0 29 17 53.5t50 24.5q42 0 45 -39q2 -35 -24 -67.5t-72 -32.5q-16 26 -16 61z" />
<glyph unicode="&#xe52;" horiz-adv-x="935" d="M123 315q0 -143 102.5 -237t257.5 -94q158 0 244 89.5t86 243.5q0 89 -45.5 160.5t-130.5 71.5q-46 0 -88 -31q-42 31 -78 31q-80 0 -120 -59t-40 -140q0 -95 48.5 -147t138.5 -45q48 5 79.5 35t30.5 71q-4 60 -47.5 85.5t-103.5 25.5q-32 0 -56 -6q1 44 20 70t50 26 q11 0 23.5 -9t21 -19t21.5 -27t18 -23q45 78 86 78q34 0 53 -45t19 -119q0 -96 -61.5 -159.5t-166.5 -63.5q-108 0 -182 69t-74 170v379l-106 -51v-330zM403 297q24 6 54 6q75 0 75 -39q0 -25 -36 -37q-35 -5 -60.5 14t-32.5 56z" />
<glyph unicode="&#xe53;" horiz-adv-x="935" d="M131 268q0 -53 8 -98.5t27.5 -89.5t59.5 -70t96 -26q57 0 93 31.5t36 84.5q0 61 -45 96t-113 35q-30 0 -55 -6q-2 6 -2 17v16q0 88 32 147.5t74 59.5t82 -68v-151l102 43v119q43 55 82 55q41 0 67.5 -52t22.5 -145q-3 -111 -51 -266h115q1 4 6.5 28t9 40.5t9.5 46.5 t9.5 54.5t6 55t2.5 56.5q0 268 -201 268q-71 0 -129 -55q-55 55 -131 55q-55 0 -97.5 -25.5t-67 -67.5t-36.5 -90t-12 -98zM244 150q1 1 3 1.5t5.5 1t5.5 1.5q4 2 12 2h17q34 0 54.5 -17t20.5 -41q0 -15 -9 -26t-27 -11q-28 0 -49.5 25t-32.5 64z" />
<glyph unicode="&#xe54;" horiz-adv-x="935" d="M150 274q0 -127 93.5 -207.5t227.5 -80.5q88 0 174 28h2q7 -2 15.5 -5.5t12.5 -5t9.5 -2.5t11.5 -1h138v57q-132 28 -203 70q35 27 60.5 64t25.5 75q0 55 -32.5 88t-88.5 35q-64 1 -100 -39t-41 -100q-7 -44 27.5 -96.5t72.5 -73.5q-5 -1 -15 -2t-14 -2q-5 -1 -21 -3.5 t-22 -2.5q-105 0 -166 56t-61 148q0 88 61 139.5t166 51.5q87 0 154.5 -17t124.5 -63l213 295h-117l-125 -178q-99 51 -250 51q-145 0 -239 -72.5t-94 -206.5zM539 252q1 24 15 39.5t32 15.5q43 0 43 -43q-2 -42 -66 -84q-24 26 -24 72z" />
<glyph unicode="&#xe55;" horiz-adv-x="935" d="M150 274q0 -127 93.5 -207.5t227.5 -80.5q112 0 174 26h2q35 -12 47 -12h140v57q-135 28 -203 68q34 23 60 61t26 78q0 56 -34 89.5t-91 33.5q-65 0 -104 -41.5t-39 -101.5q0 -89 79 -158l-21 -3.5t-24 -2.5q-106 0 -166.5 51.5t-60.5 142.5q0 88 76.5 141.5t179.5 53.5 q39 0 70 -8q50 -4 67 -4q91 0 179 56t137 169h-115q-18 -37 -52.5 -73.5t-74.5 -55.5q16 11 25.5 32t9.5 36q0 59 -38.5 91.5t-105.5 32.5q-68 0 -109.5 -38t-41.5 -99q0 -42 20 -53q-159 -10 -246 -84t-87 -197zM528 252q0 28 17 45.5t41 17.5q28 0 40.5 -16t12.5 -37 q0 -33 -22 -57.5t-52 -36.5q-37 40 -37 84zM545 606q0 27 18.5 46.5t52.5 19.5q28 0 44 -13.5t14 -31.5q-4 -59 -84 -82q-19 8 -32 25t-13 36z" />
<glyph unicode="&#xe56;" horiz-adv-x="935" d="M70 678l172 -318q99 99 221 99q100 0 175 -51.5t75 -139.5t-76.5 -145t-175.5 -57q-28 0 -55 6q16 49 10 102v2q-4 71 -52.5 109.5t-107.5 27.5q-50 -11 -78 -47.5t-22 -85.5q0 -13 3.5 -28t13.5 -38.5t32.5 -44.5t55.5 -40.5t88.5 -31t125.5 -11.5q145 0 242.5 76.5 t97.5 205.5q0 89 -48.5 154.5t-123.5 96t-166 30.5q-115 0 -201 -45l-90 174h-116zM240 156q-11 38 3 61t31 23q29 0 43.5 -27t14.5 -63q0 -29 -10 -62q-33 5 -53.5 27t-28.5 41z" />
<glyph unicode="&#xe57;" horiz-adv-x="935" d="M141 287q0 -74 21 -141.5t66.5 -114.5t105.5 -47q56 0 92.5 33.5t36.5 84.5q0 59 -45.5 93t-116.5 34q-30 0 -61 -8q-2 14 -2 25v22q0 83 21 141t58 58q52 0 107 -162q19 71 46.5 116.5t53.5 45.5q40 0 60 -54t20 -139q0 -70 -21 -150t-48 -124h133q86 61 117.5 143 t31.5 244v313l-100 -65v-311q0 -48 -1 -72.5t-7 -56.5t-19 -54q10 72 10 154q0 254 -165 254q-68 0 -113 -51q-51 51 -111 51q-81 0 -125.5 -75.5t-44.5 -186.5zM254 147q21 13 68 13q24 0 45.5 -15t21.5 -43q0 -47 -49 -47q-29 0 -51.5 24.5t-34.5 67.5z" />
<glyph unicode="&#xe58;" horiz-adv-x="935" d="M143 258q0 -83 56.5 -163.5t146.5 -121.5l64 144q40 -71 95.5 -102t106.5 -31q92 0 148.5 57t56.5 149q0 68 -36 117t-105 49q-54 0 -90.5 -39.5t-36.5 -95.5q0 -72 67 -145q-57 5 -111 77.5t-71 172.5l-123 -213q-63 45 -63 149q0 88 64 143.5t171 55.5q125 0 246 -62 l105 279h-105l-59 -152q-82 23 -189 23q-168 0 -253 -77t-85 -214zM633 199q-7 33 7.5 57.5t33.5 24.5q27 0 48 -24.5t21 -59.5q0 -68 -38 -97q-11 7 -29 21q-34 34 -43 78z" />
<glyph unicode="&#xe59;" horiz-adv-x="935" d="M145 236q0 -103 54.5 -177.5t146.5 -74.5q58 0 97.5 35.5t39.5 89.5q0 70 -50.5 109t-123.5 44q-22 2 -61 -2q1 82 37.5 127t89.5 45q90 0 117 -110q13 -60 31 -102t51.5 -85.5t87.5 -82.5t135 -79l37 88q-117 61 -173 114.5t-67 139.5q-4 32 -4 52q0 42 15 72t44 30 q73 0 144 -225l155 434h-98l-64 -170q-19 19 -38 27q-43 26 -84 26q-102 3 -156 -80q-57 47 -135 47q-104 0 -166 -89t-62 -203zM250 182q24 4 53 4q39 -2 68.5 -24t29.5 -53q0 -21 -19 -36.5t-44 -11.5q-35 4 -62.5 42t-25.5 79z" />
<glyph unicode="&#xe5a;" horiz-adv-x="962" d="M57 600q0 -98 69.5 -170t170.5 -72q130 0 229 146v-533l115 54v768h-109q-5 -74 -34.5 -149.5t-84.5 -131t-120 -55.5q-50 0 -70 12q50 26 83.5 78t33.5 115q0 56 -37 93.5t-94 37.5q-51 0 -87 -30.5t-50.5 -72.5t-14.5 -90zM135 598q-5 52 16.5 88.5t57.5 36.5 q26 0 41.5 -17.5t15.5 -43.5q0 -88 -94 -150q-5 3 -16 18q-18 26 -21 68zM760 -27l114 54v766h-114v-820z" />
<glyph unicode="&#xe5b;" horiz-adv-x="1490" d="M74 418q0 -89 31.5 -166t99.5 -128.5t160 -51.5q59 0 109 24.5t83.5 60t62.5 90.5t46 101.5t34 106.5l54 -318h39l51 250l59 -229h37l53 223l72 -250l78 252q41 -68 246 -53l45 67h-129q-37 0 -64 8t-45 25t-28.5 31.5t-25.5 42t-24 41.5l-53 -170l-57 211h-37l-51 -207 l-56 242h-37l-51 -240l-51 303h-39q-30 -150 -66.5 -254t-78.5 -159t-84 -78t-92 -23q-89 0 -144 75.5t-55 172.5q0 85 46 153t120 68q63 0 103 -53t40 -119q0 -40 -21 -75.5t-53 -53.5q23 38 23 80q0 50 -26.5 86.5t-71.5 36.5q-51 0 -76 -39.5t-27 -95.5q0 -35 13.5 -69 t47 -60.5t81.5 -26.5q82 0 139 71.5t57 155.5q0 100 -60.5 175t-168.5 75q-122 0 -190 -91.5t-68 -217.5zM295 406q0 61 29 61q13 0 21.5 -13.5t8.5 -33.5q0 -24 -10.5 -41t-28.5 -17q-20 0 -20 44z" />
<glyph unicode="&#x2000;" horiz-adv-x="876" />
<glyph unicode="&#x2001;" horiz-adv-x="1753" />
<glyph unicode="&#x2002;" horiz-adv-x="876" />
<glyph unicode="&#x2003;" horiz-adv-x="1753" />
<glyph unicode="&#x2004;" horiz-adv-x="584" />
<glyph unicode="&#x2005;" horiz-adv-x="438" />
<glyph unicode="&#x2006;" horiz-adv-x="292" />
<glyph unicode="&#x2007;" horiz-adv-x="292" />
<glyph unicode="&#x2008;" horiz-adv-x="219" />
<glyph unicode="&#x2009;" horiz-adv-x="350" />
<glyph unicode="&#x200a;" horiz-adv-x="97" />
<glyph unicode="&#x2010;" horiz-adv-x="792" d="M174 303h442v103h-442v-103z" />
<glyph unicode="&#x2011;" horiz-adv-x="792" d="M174 303h442v103h-442v-103z" />
<glyph unicode="&#x2012;" horiz-adv-x="792" d="M174 303h442v103h-442v-103z" />
<glyph unicode="&#x2013;" horiz-adv-x="673" d="M0 342h674v100h-674v-100z" />
<glyph unicode="&#x2014;" horiz-adv-x="874" d="M0 342h874v100h-874v-100z" />
<glyph unicode="&#x2018;" horiz-adv-x="501" d="M166 819q0 -77 72 -145l116 -21l2 47q-65 30 -86 70q66 15 66 76q0 35 -25 54.5t-55 19.5q-43 0 -66.5 -28.5t-23.5 -72.5z" />
<glyph unicode="&#x2019;" horiz-adv-x="501" d="M170 653l117 21q71 71 71 145q0 44 -24 72.5t-66 28.5q-32 0 -56 -19t-24 -55q0 -61 66 -76q-26 -45 -84 -70v-47z" />
<glyph unicode="&#x201a;" horiz-adv-x="501" d="M158 -76v-47l114 21q72 68 72 145q0 44 -23.5 73t-64.5 29q-32 0 -57 -20t-25 -55q0 -62 66 -74q-27 -44 -82 -72z" />
<glyph unicode="&#x201c;" horiz-adv-x="743" d="M158 842q0 -80 69 -146l117 -20v47q-55 28 -82 72q66 12 66 73q0 35 -25 55.5t-57 20.5q-41 0 -64.5 -29t-23.5 -73zM399 842q0 -79 70 -146l117 -20v47q-55 28 -82 72q65 12 65 73q0 34 -25.5 55t-54.5 21q-43 0 -66.5 -28.5t-23.5 -73.5z" />
<glyph unicode="&#x201d;" horiz-adv-x="743" d="M160 676l116 20q70 67 70 146q0 44 -23.5 73t-64.5 29q-32 0 -57 -20.5t-25 -55.5q0 -61 66 -73q-27 -44 -82 -72v-47zM401 676l117 20q72 68 72 146q0 44 -24 73t-66 29q-32 0 -57 -20.5t-25 -55.5q0 -61 65 -73q-29 -46 -82 -72v-47z" />
<glyph unicode="&#x201e;" horiz-adv-x="743" d="M158 -76v-47l116 21q70 67 70 145q0 44 -23.5 73t-64.5 29q-32 0 -57 -20t-25 -55q0 -62 66 -74q-27 -44 -82 -72zM399 -76v-47l117 21q70 67 70 145q0 44 -23.5 73t-64.5 29q-32 0 -57 -20t-25 -55q0 -62 65 -74q-29 -46 -82 -72z" />
<glyph unicode="&#x2020;" horiz-adv-x="987" d="M186 567h250v-843h113v843h254v103h-254v241h-113v-241h-250v-103z" />
<glyph unicode="&#x2021;" horiz-adv-x="987" d="M186 360h250v-636h113v636h256v103h-256v104h254v103h-254v241h-113v-241h-250v-103h250v-104h-250v-103z" />
<glyph unicode="&#x2022;" horiz-adv-x="581" d="M137 463q0 -63 46.5 -106.5t113.5 -43.5q70 0 116 41.5t46 108.5q0 63 -46.5 106t-115.5 43q-68 0 -114 -43t-46 -106z" />
<glyph unicode="&#x2026;" horiz-adv-x="1306" d="M201 0h127v188h-127v-188zM590 0h127v188h-127v-188zM977 0h129v188h-129v-188z" />
<glyph unicode="&#x202f;" horiz-adv-x="350" />
<glyph unicode="&#x2030;" horiz-adv-x="1429" d="M100 719q0 -90 58 -154.5t151 -64.5q95 0 151 67t56 150q0 85 -59 150t-148 65q-91 0 -150 -60.5t-59 -152.5zM209 717q0 50 26.5 83.5t73.5 33.5q40 0 69.5 -34.5t29.5 -76.5q0 -53 -26 -88.5t-75 -36.5q-42 0 -70 35.5t-28 83.5zM246 0h119l432 911h-117zM532 197 q0 -89 57 -154.5t152 -65.5q93 0 150 69.5t57 148.5q0 88 -58.5 152.5t-148.5 64.5q-96 0 -152.5 -60.5t-56.5 -154.5zM639 195q0 51 27 83.5t75 32.5q41 0 70 -33.5t29 -76.5q0 -49 -25.5 -85.5t-75.5 -37.5q-41 0 -70.5 36.5t-29.5 80.5zM983 197q0 -88 58 -154t155 -66 q88 0 146.5 70.5t58.5 147.5q0 87 -58.5 152t-146.5 65q-97 0 -155 -60.5t-58 -154.5zM1094 195q0 52 26.5 84t75.5 32q40 0 67 -33t27 -77q0 -49 -25 -85.5t-71 -37.5q-43 0 -71.5 36t-28.5 81z" />
<glyph unicode="&#x2032;" horiz-adv-x="391" d="M115 651h129l118 275h-133z" />
<glyph unicode="&#x2033;" horiz-adv-x="694" d="M119 651h125l121 275h-134zM412 651h129l118 275h-131z" />
<glyph unicode="&#x2039;" horiz-adv-x="935" d="M143 326l596 -291v119l-438 219l438 219v119l-596 -291v-94z" />
<glyph unicode="&#x203a;" horiz-adv-x="935" d="M197 33l596 293v94l-596 291v-119l436 -219l-436 -219v-121z" />
<glyph unicode="&#x2044;" horiz-adv-x="657" d="M55 0h115l432 911h-117z" />
<glyph unicode="&#x205f;" horiz-adv-x="438" />
<glyph unicode="&#x20ac;" horiz-adv-x="1067" d="M41 289h164q51 -151 165 -230t275 -79q181 0 297 126v142q-66 -66 -152.5 -115t-144.5 -49q-239 0 -315 205h370l37 98h-434q-2 10 -2 31v33v26q0 19 2 29h463l37 96h-473q43 105 127 167t184 62q151 0 301 -184v166q-132 119 -303 119q-155 0 -272 -92t-162 -238h-84 l-35 -96h100q-4 -20 -4 -31v-31v-28q0 -17 4 -29h-129z" />
<glyph unicode="&#xe000;" horiz-adv-x="665" d="M0 0v666h666v-666h-666z" />
<glyph unicode="&#xf700;" horiz-adv-x="819" d="M66 510h282q184 0 184 -137v-330h-26q-28 162 -53 242t-56.5 113.5t-85.5 41.5q-36 5 -70 -13.5t-40 -59.5q-10 -65 42.5 -134t159.5 -88q1 -10 11 -49q9 -46 18 -96h213v352q0 141 -73 200.5t-250 59.5h-84q34 34 80 53t90 19q84 0 135.5 -22t101.5 -78l45 118 q-113 91 -260 91q-133 0 -229.5 -78t-134.5 -205zM264 342q0 13 11 23t24 10q8 -1 15 -4.5t13.5 -10.5t11.5 -13t11 -18t9.5 -19.5t8.5 -23.5t7.5 -23.5t8 -25.5t7.5 -24q-59 11 -93 54t-34 75z" />
<glyph unicode="&#xf701;" d="M-987 918q115 14 172 14q222 0 438 -96q-12 164 -93.5 264t-219.5 100q-112 0 -190.5 -68t-106.5 -214zM-854 1020q52 89 168 92q138 -8 188 -133q-128 41 -346 41h-10z" />
<glyph unicode="&#xf702;" d="M-985 918q84 14 172 14q220 0 436 -96v436l-106 -45v-101q-77 74 -203 74q-113 0 -191.5 -67.5t-107.5 -214.5zM-852 1020q47 88 168 92q141 -9 188 -133q-128 41 -346 41h-10z" />
<glyph unicode="&#xf703;" d="M-987 918q94 16 174 16q229 0 436 -98q-12 145 -57 223q32 14 54 44t22 64q0 49 -32 79t-83 30q-36 0 -63.5 -21t-37 -42.5t-4.5 -26.5q-58 14 -112 14q-112 0 -190.5 -68t-106.5 -214zM-852 1020q49 92 166 92q142 -9 190 -133q-135 41 -348 41h-8zM-524 1167 q0 21 15 35.5t38 14.5q22 0 35.5 -14.5t13.5 -35.5t-13 -34t-36 -13t-38 13.5t-15 33.5z" />
<glyph unicode="&#xf704;" d="M-985 918q96 16 172 16q229 0 436 -98v448l-80 -39v-170q-12 20 -45 53q-23 17 -26 19v139l-82 -41v-55q-45 10 -76 10q-113 0 -191.5 -67.5t-107.5 -214.5zM-852 1020q49 92 168 92q137 -8 186 -131q-116 39 -297 39h-57z" />
<glyph unicode="&#xf705;" d="M-532 877h110v354l-110 -45v-309z" />
<glyph unicode="&#xf706;" d="M-797 956l74 -71q182 17 320 133q58 52 98 110l-70 93q-10 -59 -80.5 -134.5t-175.5 -113.5q19 16 31 37q33 54 33 96q0 59 -34.5 93t-92.5 32q-45 -2 -73.5 -29.5t-27.5 -68.5q9 -90 119 -113q-13 -13 -67 -41q-14 -5 -54 -23zM-725 1130q0 16 11 26.5t24 10.5 q31 2 46.5 -25.5t-1.5 -62.5q-32 0 -56 16t-24 35z" />
<glyph unicode="&#xf707;" d="M-862 997q0 -55 29 -90t85 -39q38 -2 60.5 28.5t9.5 84.5q-12 -30 -21 -39.5t-26 -9.5q-34 0 -50.5 30.5t-7.5 72.5t42 71q13 -9 61 -57q4 -4 9 -10t11 -13.5t9 -11.5q5 6 14 18.5t14 18.5q30 39 54 49q26 -33 26 -96q0 -89 -30 -136h104q71 23 119 99.5t57 150.5l-78 88 q0 -186 -108 -268q41 188 -96 270q-14 -10 -26 -22.5t-30 -34.5t-20 -25q-62 62 -88 80q-66 -47 -94.5 -96.5t-28.5 -112.5z" />
<glyph unicode="&#xf708;" d="M-743 997h137v-110h110v110h138v107h-138v137l-110 -49v-88h-137v-107z" />
<glyph unicode="&#xf709;" d="M-719 989q-7 -52 23.5 -89t79.5 -42q55 -5 95 29t44 108q3 62 -19 101l45 14q84 31 123 70v147q-71 -108 -198 -153q-181 -68 -193 -185zM-639 975q1 23 22 50t50 44q16 -37 18 -74q0 -32 -20 -50.5t-35 -18.5q-38 9 -35 49z" />
<glyph unicode="&#xf70a;" d="M-297 909h111v328l-111 -45v-283z" />
<glyph unicode="&#xf70b;" d="M-575 958l75 -75q184 17 330 137q60 51 102 115l-71 96q-9 -58 -85.5 -138.5t-181.5 -117.5q23 23 33 37q35 50 35 98q0 61 -36.5 97t-96.5 34q-44 -1 -73.5 -31t-28.5 -71q4 -46 36.5 -76t85.5 -41q-16 -16 -71 -41q-2 -1 -21.5 -9.5t-31.5 -13.5zM-502 1137 q0 18 11 28.5t24 10.5q33 2 49.5 -27t-4.5 -64q-34 0 -57 15.5t-23 36.5z" />
<glyph unicode="&#xf70c;" d="M-674 1020q0 -61 32.5 -99t92.5 -42q41 -2 66.5 30.5t9.5 91.5q-10 -31 -21 -42t-30 -11q-38 0 -56 33.5t-8.5 79t45.5 78.5q39 -27 68 -64l31 -37q6 8 34 41q31 40 56 54q30 -30 30 -107q0 -90 -34 -147h116q79 28 126 105t69 169l-88 96q0 -202 -121 -295 q11 32 13.5 69.5t-4.5 79.5t-36 82t-77 66q-38 -28 -84 -90q-60 64 -97 88q-71 -50 -102 -104.5t-31 -124.5z" />
<glyph unicode="&#xf70d;" d="M-418 991h131v-121h113v121h131v107h-131v143l-113 -59v-84h-131v-107z" />
<glyph unicode="&#xf70e;" d="M-504 977q4 -53 41.5 -85.5t85.5 -27.5q55 5 88 44.5t23 113.5q-6 49 -35 96l39 21q65 37 112 88l-28 145q-25 -60 -64 -103.5t-102 -78.5q-67 -35 -115.5 -93t-44.5 -120zM-422 975q-3 49 55 104q23 -29 31 -69q7 -31 -10 -54.5t-31 -23.5q-34 0 -45 43z" />
<glyph unicode="&#xf70f;" horiz-adv-x="1187" d="M100 580q8 -5 25.5 -14t24.5 -13q16 -7 42 -21.5t37 -19.5q-25 -31 -34 -67.5t-9 -102.5v-96v-140q0 -59 35.5 -90.5t89.5 -31.5q60 0 95.5 42t35.5 105q0 68 -39.5 125.5t-101.5 97.5q0 34 2.5 56t12 50t33 44t61.5 20l-146 82q89 86 172 86q79 0 124.5 -57.5 t45.5 -140.5v-441q11 -31 77.5 -50t127.5 -19q62 0 127 19t76 50v740l-115 -58v-645q-34 -10 -88 -10q-58 0 -88 10v408q0 133 -83 214t-202 81q-178 0 -338 -213zM301 106v156q29 -13 50.5 -52.5t21.5 -72.5q0 -76 -45 -76q-11 0 -19 11.5t-8 33.5z" />
<glyph unicode="&#xf710;" d="M-745 1087q0 -87 74.5 -138.5t168.5 -51.5q243 0 391 229l-45 103q-62 -110 -157 -176t-193 -66q-28 0 -61 8q30 24 47.5 60.5t17.5 72.5q0 52 -29 82.5t-79 30.5q-61 0 -98 -45t-37 -109zM-666 1094q4 33 20.5 52t35.5 19q14 0 23 -9.5t9 -22.5q0 -29 -16 -61t-45 -48 q-15 7 -24 27t-3 43z" />
<glyph unicode="&#xf711;" d="M-725 1055q0 -66 49.5 -111t118.5 -45q72 0 119 45t47 111q0 68 -47 112.5t-119 44.5q-70 0 -119 -45t-49 -112zM-635 1055q0 35 23 53t55 18q33 0 55.5 -18t22.5 -53t-22.5 -52.5t-55.5 -17.5q-32 0 -55 18t-23 52z" />
<glyph unicode="&#xf712;" d="M-893 1073q0 -152 199 -196q-7 21 8 61.5t29 50.5l125 -112q65 22 96.5 59t13.5 86q-7 26 -32.5 40.5t-61.5 14.5q32 -24 33.5 -50.5t-15 -42t-32.5 -15.5l-127 114q-30 -25 -37 -32q-47 -59 -54 -76q-65 43 -57 106q5 38 41.5 66.5t95.5 28.5q36 0 86 -13q5 -2 16.5 -6 t16.5 -6l227 121l-104 33l-125 -64q-18 3 -39 6q-23 6 -72 6q-109 0 -170 -53.5t-61 -126.5z" />
<glyph unicode="&#xf713;" d="M-489 1358h112v274l-112 -51v-223z" />
<glyph unicode="&#xf714;" d="M-551 1374l74 -71q183 17 317 133q60 54 99 110l-70 92q-10 -59 -80.5 -134t-175.5 -113q20 17 31 36q32 46 32 97q0 59 -34.5 93t-90.5 32q-47 -1 -74.5 -29t-25.5 -70q8 -88 117 -112q-19 -19 -68 -41q-9 -4 -28 -12.5t-23 -10.5zM-479 1548q0 17 10.5 27t24.5 10 q31 2 46.5 -25.5t-3.5 -62.5q-31 0 -54.5 16t-23.5 35z" />
<glyph unicode="&#xf715;" d="M-618 1434q0 -56 28.5 -90.5t83.5 -38.5q38 -2 60.5 28t9.5 84q-10 -28 -20.5 -38.5t-24.5 -10.5q-36 0 -52.5 30.5t-7.5 72.5t41 71q26 -17 62 -57q6 -6 15.5 -18.5t12.5 -16.5l31 37q27 39 51 49q27 -27 27 -96q0 -86 -31 -135h105q49 15 88.5 60t60 93t29.5 96l-80 88 q0 -187 -109 -268q41 189 -96 271q-14 -10 -26 -22.5t-30 -34.5t-20 -25q-58 58 -88 79q-65 -47 -92.5 -95.5t-27.5 -112.5z" />
<glyph unicode="&#xf716;" d="M-596 1432h123v-91h100v91h117v96h-117v108l-100 -49v-59h-123v-96z" />
<glyph unicode="&#xf717;" d="M-565 1415q-6 -52 25 -89t77 -42q56 -5 95.5 28.5t43.5 108.5q2 55 -16 101l43 14q82 30 125 70v147q-37 -56 -84 -93t-115 -61q-182 -70 -194 -184zM-483 1401q2 23 22 50t49 44q15 -34 17 -74q0 -32 -20 -50.5t-34 -18.5q-37 9 -34 49z" />
<glyph unicode="&#xf718;" d="M-436 -475q0 -42 35 -71.5t100 -39.5v-176l115 49v221q0 49 -40.5 84t-95.5 35q-57 0 -85.5 -29t-28.5 -73zM-375 -475q0 39 35 39q24 0 36 -24.5t7 -63.5v-2q-35 1 -56.5 16.5t-21.5 34.5z" />
<glyph unicode="&#xf719;" d="M-604 -475q0 -43 34 -72t99 -39v-78q0 -38 46 -59.5t97 -21.5q59 0 100.5 22.5t41.5 58.5v312l-105 -56v-231q-8 -8 -35 -8q-25 0 -41 8v147q0 51 -35 84t-90 33q-54 0 -83 -29.5t-29 -70.5zM-547 -465q6 29 37 29q55 0 45 -84v-2q-46 1 -66.5 17t-15.5 40z" />
<glyph unicode="&#xf71a;" d="M-438 -442q0 -33 26 -57.5t62 -24.5q35 0 59.5 24.5t24.5 57.5t-24.5 56.5t-59.5 23.5q-36 0 -62 -23.5t-26 -56.5z" />
<glyph unicode="&#xf71b;" horiz-adv-x="952" d="M111 578l161 -91v-131q-62 -40 -101.5 -98.5t-39.5 -126.5q0 -63 35.5 -105t95.5 -42q54 0 90.5 31.5t36.5 90.5v400l12 29l-131 73q100 86 209 86q77 0 131 -56.5t54 -131.5v-721l-23 -14q-3 3 -9 8t-9 8q-7 5 -37 29q7 55 2 81t-23 52h-41q15 -15 15 -43q0 -25 -4 -45 q-16 13 -41 24q-52 24 -127 21q-62 -5 -100 -35.5t-38 -77.5q0 -49 41 -79.5t117 -30.5q94 0 162 65q38 -38 78 -90l151 88v760q0 133 -88.5 210t-210.5 77q-204 0 -368 -215zM201 137q0 33 21 72.5t50 52.5v-156q0 -45 -26 -45q-45 0 -45 76zM305 -205q0 39 57 49 q27 5 68 -6.5t68 -38.5q-18 -23 -51 -37t-64 -14q-78 0 -78 47z" />
<glyph unicode="&#xf71c;" horiz-adv-x="952" d="M111 578l161 -91v-131q-62 -40 -101.5 -98.5t-39.5 -126.5q0 -63 35.5 -105t95.5 -42q54 0 90.5 31.5t36.5 90.5v400l12 29l-131 73q100 86 209 86q77 0 131 -56.5t54 -131.5v-670l-66 62l-76 -107q-6 0 -10 2q-8 3 -23 21q10 24 15 58.5t-4 76.5h-31q13 -63 -25 -101 q-82 59 -165 50q-56 -10 -89.5 -47.5t-17.5 -88.5q19 -56 73.5 -73.5t114.5 2.5t99 67q7 -7 21.5 -22.5t21.5 -22.5q3 -4 10.5 -12.5t11.5 -13.5q3 6 45 69l31 43l123 -112l55 30v789q0 133 -88.5 210t-210.5 77q-204 0 -368 -215zM201 137q0 33 21 72.5t50 52.5v-156 q0 -45 -26 -45q-45 0 -45 76zM243.5 -187q17.5 25 63.5 25q23 0 52 -12t49 -29q-12 -19 -42.5 -35.5t-56.5 -17.5q-43 -3 -63 20.5t-2.5 48.5z" />
<glyph unicode="&#xf71d;" horiz-adv-x="1015" d="M96 645q0 -68 40 -126.5t102 -98.5v-420h155l148 297l145 -297h156v627q96 110 88 254l-58 -13q-4 -107 -71 -174q-30 53 -94.5 80.5t-131.5 16.5q-65 -11 -100.5 -55.5t-30.5 -94.5q3 -49 41.5 -79.5t88 -38.5t96.5 1q21 4 37 11q2 1 8.5 4t11.5 4v-414l-186 336 l-187 -346v551q0 59 -36.5 91t-90.5 32q-60 0 -95.5 -42.5t-35.5 -105.5zM166 639q0 76 45 76q11 0 19 -11.5t8 -33.5v-156q-29 13 -50.5 52.5t-21.5 72.5zM527 630q-10 22 5 52q13 29 55.5 34.5t85.5 -16.5t56 -63q-47 -44 -120 -43q-64 0 -82 36z" />
</font>
</defs>
</svg>
